<?xml version="1.0" encoding="UTF-8" standalone="no"?>
<!-- Created with Inkscape (http://www.inkscape.org/) -->

<svg
   width="210mm"
   height="297mm"
   viewBox="0 0 210 297"
   version="1.1"
   id="svg1"
   inkscape:version="1.3.2 (1:1.3.2+202311252150+091e20ef0f)"
   sodipodi:docname="editorLoadingSkeleton.inkscape.svg"
   inkscape:export-filename="editorLoadingSkeleton.svg"
   inkscape:export-xdpi="30.1"
   inkscape:export-ydpi="30.1"
   xmlns:inkscape="http://www.inkscape.org/namespaces/inkscape"
   xmlns:sodipodi="http://sodipodi.sourceforge.net/DTD/sodipodi-0.dtd"
   xmlns="http://www.w3.org/2000/svg"
   xmlns:svg="http://www.w3.org/2000/svg">
  <sodipodi:namedview
     id="namedview1"
     pagecolor="#ffffff"
     bordercolor="#000000"
     borderopacity="0.25"
     inkscape:showpageshadow="2"
     inkscape:pageopacity="0.0"
     inkscape:pagecheckerboard="0"
     inkscape:deskcolor="#d1d1d1"
     inkscape:document-units="mm"
     inkscape:zoom="0.4489899"
     inkscape:cx="203.79078"
     inkscape:cy="639.2126"
     inkscape:window-width="1366"
     inkscape:window-height="704"
     inkscape:window-x="0"
     inkscape:window-y="27"
     inkscape:window-maximized="1"
     inkscape:current-layer="layer1" />
  <defs
     id="defs1" />
  <g
     inkscape:label="Layer 1"
     inkscape:groupmode="layer"
     id="layer1">
    <path
       id="rect1"
       style="fill:#ffffff;fill-opacity:1;stroke-width:0.0855336"
       d="m 11.056569,9.0598537 h 5.674319 c 0.447739,0 0.808194,0.3604545 0.808194,0.8081942 v 1.8797831 c 0,0.44774 -0.360455,0.808195 -0.808194,0.808195 h -5.674319 c -0.44774,0 -0.808194,-0.360455 -0.808194,-0.808195 V 9.8680479 c 0,-0.4477397 0.360454,-0.8081942 0.808194,-0.8081942 z" />
    <path
       id="rect1-5"
       style="fill:#ffffff;fill-opacity:1;stroke-width:0.0855336"
       d="m 11.056569,14.97363 h 5.674319 c 0.447739,0 0.808194,0.360455 0.808194,0.808194 v 1.879784 c 0,0.447739 -0.360455,0.808194 -0.808194,0.808194 h -5.674319 c -0.44774,0 -0.808194,-0.360455 -0.808194,-0.808194 v -1.879784 c 0,-0.447739 0.360454,-0.808194 0.808194,-0.808194 z" />
    <path
       id="rect1-2"
       style="fill:#ffffff;fill-opacity:1;stroke-width:0.0855336"
       d="m 11.056569,20.734333 h 5.674319 c 0.447739,0 0.808194,0.360455 0.808194,0.808194 v 1.879783 c 0,0.447739 -0.360455,0.808195 -0.808194,0.808195 h -5.674319 c -0.44774,0 -0.808194,-0.360456 -0.808194,-0.808195 v -1.879783 c 0,-0.447739 0.360454,-0.808194 0.808194,-0.808194 z" />
    <path
       id="rect1-5-9"
       style="fill:#ffffff;fill-opacity:1;stroke-width:0.0855336"
       d="m 11.056569,26.648108 h 5.674319 c 0.447739,0 0.808194,0.360456 0.808194,0.808195 v 1.879783 c 0,0.44774 -0.360455,0.808194 -0.808194,0.808194 h -5.674319 c -0.44774,0 -0.808194,-0.360454 -0.808194,-0.808194 v -1.879783 c 0,-0.447739 0.360454,-0.808195 0.808194,-0.808195 z" />
    <path
       id="rect1-0"
       style="fill:#ffffff;fill-opacity:1;stroke-width:0.0855336"
       d="m 11.056569,32.936602 h 5.674319 c 0.447739,0 0.808194,0.360454 0.808194,0.808194 v 1.879783 c 0,0.44774 -0.360455,0.808195 -0.808194,0.808195 h -5.674319 c -0.44774,0 -0.808194,-0.360455 -0.808194,-0.808195 v -1.879783 c 0,-0.44774 0.360454,-0.808194 0.808194,-0.808194 z" />
    <path
       id="rect1-5-93"
       style="fill:#ffffff;fill-opacity:1;stroke-width:0.0855336"
       d="m 11.056569,38.850378 h 5.674319 c 0.447739,0 0.808194,0.360455 0.808194,0.808194 v 1.879784 c 0,0.447739 -0.360455,0.808193 -0.808194,0.808193 h -5.674319 c -0.44774,0 -0.808194,-0.360454 -0.808194,-0.808193 v -1.879784 c 0,-0.447739 0.360454,-0.808194 0.808194,-0.808194 z" />
    <path
       id="rect1-2-6"
       style="fill:#ffffff;fill-opacity:1;stroke-width:0.0855336"
       d="m 11.056569,44.61108 h 5.674319 c 0.447739,0 0.808194,0.360455 0.808194,0.808195 v 1.879781 c 0,0.447739 -0.360455,0.808194 -0.808194,0.808194 h -5.674319 c -0.44774,0 -0.808194,-0.360455 -0.808194,-0.808194 v -1.879781 c 0,-0.44774 0.360454,-0.808195 0.808194,-0.808195 z" />
    <path
       id="rect1-5-9-0"
       style="fill:#ffffff;fill-opacity:1;stroke-width:0.0855336"
       d="m 11.056569,50.524854 h 5.674319 c 0.447739,0 0.808194,0.360455 0.808194,0.808194 v 1.879785 c 0,0.447739 -0.360455,0.808193 -0.808194,0.808193 h -5.674319 c -0.44774,0 -0.808194,-0.360454 -0.808194,-0.808193 v -1.879785 c 0,-0.447739 0.360454,-0.808194 0.808194,-0.808194 z" />
    <path
       id="rect1-1"
       style="fill:#ffffff;fill-opacity:1;stroke-width:0.0855336"
       d="m 11.056569,56.613468 h 5.674319 c 0.447739,0 0.808194,0.360454 0.808194,0.808194 v 1.879785 c 0,0.447736 -0.360455,0.808191 -0.808194,0.808191 h -5.674319 c -0.44774,0 -0.808194,-0.360455 -0.808194,-0.808191 v -1.879785 c 0,-0.44774 0.360454,-0.808194 0.808194,-0.808194 z" />
    <path
       id="rect1-5-8"
       style="fill:#ffffff;fill-opacity:1;stroke-width:0.0855336"
       d="m 11.056569,62.527244 h 5.674319 c 0.447739,0 0.808194,0.360456 0.808194,0.808196 v 1.87978 c 0,0.44774 -0.360455,0.808195 -0.808194,0.808195 h -5.674319 c -0.44774,0 -0.808194,-0.360455 -0.808194,-0.808195 v -1.87978 c 0,-0.44774 0.360454,-0.808196 0.808194,-0.808196 z" />
    <path
       id="rect1-2-7"
       style="fill:#ffffff;fill-opacity:1;stroke-width:0.0855336"
       d="m 11.056569,68.287947 h 5.674319 c 0.447739,0 0.808194,0.360455 0.808194,0.808195 v 1.87978 c 0,0.44774 -0.360455,0.808195 -0.808194,0.808195 h -5.674319 c -0.44774,0 -0.808194,-0.360455 -0.808194,-0.808195 v -1.87978 c 0,-0.44774 0.360454,-0.808195 0.808194,-0.808195 z" />
    <path
       id="rect1-5-9-9"
       style="fill:#ffffff;fill-opacity:1;stroke-width:0.0855336"
       d="m 11.056569,74.201721 h 5.674319 c 0.447739,0 0.808194,0.360458 0.808194,0.808196 v 1.879782 c 0,0.44774 -0.360455,0.808194 -0.808194,0.808194 h -5.674319 c -0.44774,0 -0.808194,-0.360454 -0.808194,-0.808194 v -1.879782 c 0,-0.447738 0.360454,-0.808196 0.808194,-0.808196 z" />
    <path
       id="rect1-0-2"
       style="fill:#ffffff;fill-opacity:1;stroke-width:0.0855336"
       d="m 11.056569,80.490217 h 5.674319 c 0.447739,0 0.808194,0.360455 0.808194,0.808194 v 1.879781 c 0,0.44774 -0.360455,0.808195 -0.808194,0.808195 h -5.674319 c -0.44774,0 -0.808194,-0.360455 -0.808194,-0.808195 v -1.879781 c 0,-0.447739 0.360454,-0.808194 0.808194,-0.808194 z" />
    <path
       id="rect1-5-93-0"
       style="fill:#ffffff;fill-opacity:1;stroke-width:0.0855336"
       d="m 11.056569,86.403991 h 5.674319 c 0.447739,0 0.808194,0.360455 0.808194,0.808193 v 1.879787 c 0,0.447736 -0.360455,0.808192 -0.808194,0.808192 h -5.674319 c -0.44774,0 -0.808194,-0.360456 -0.808194,-0.808192 v -1.879787 c 0,-0.447738 0.360454,-0.808193 0.808194,-0.808193 z" />
    <path
       id="rect1-2-6-2"
       style="fill:#ffffff;fill-opacity:1;stroke-width:0.0855336"
       d="m 11.056569,92.164693 h 5.674319 c 0.447739,0 0.808194,0.360457 0.808194,0.808192 v 1.879783 c 0,0.447743 -0.360455,0.808193 -0.808194,0.808193 h -5.674319 c -0.44774,0 -0.808194,-0.36045 -0.808194,-0.808193 v -1.879783 c 0,-0.447735 0.360454,-0.808192 0.808194,-0.808192 z" />
    <path
       id="rect1-5-9-0-3"
       style="fill:#ffffff;fill-opacity:1;stroke-width:0.0855336"
       d="m 11.056569,98.078469 h 5.674319 c 0.447739,0 0.808194,0.360457 0.808194,0.808193 v 1.879788 c 0,0.44773 -0.360455,0.8082 -0.808194,0.8082 h -5.674319 c -0.44774,0 -0.808194,-0.36047 -0.808194,-0.8082 v -1.879788 c 0,-0.447736 0.360454,-0.808193 0.808194,-0.808193 z" />
    <path
       id="rect1-22"
       style="fill:#ffffff;fill-opacity:1;stroke-width:0.0855336"
       d="m 11.056569,103.91754 h 5.674319 c 0.447739,0 0.808194,0.36046 0.808194,0.80819 v 1.87979 c 0,0.44773 -0.360455,0.80819 -0.808194,0.80819 h -5.674319 c -0.44774,0 -0.808194,-0.36046 -0.808194,-0.80819 v -1.87979 c 0,-0.44773 0.360454,-0.80819 0.808194,-0.80819 z" />
    <path
       id="rect1-5-89"
       style="fill:#ffffff;fill-opacity:1;stroke-width:0.0855336"
       d="m 11.056569,109.83132 h 5.674319 c 0.447739,0 0.808194,0.36045 0.808194,0.80819 v 1.87979 c 0,0.44773 -0.360455,0.80819 -0.808194,0.80819 h -5.674319 c -0.44774,0 -0.808194,-0.36046 -0.808194,-0.80819 v -1.87979 c 0,-0.44774 0.360454,-0.80819 0.808194,-0.80819 z" />
    <path
       id="rect1-2-73"
       style="fill:#ffffff;fill-opacity:1;stroke-width:0.0855336"
       d="m 11.056569,115.59202 h 5.674319 c 0.447739,0 0.808194,0.36045 0.808194,0.8082 V 118.28 c 0,0.44773 -0.360455,0.8082 -0.808194,0.8082 h -5.674319 c -0.44774,0 -0.808194,-0.36047 -0.808194,-0.8082 v -1.87978 c 0,-0.44775 0.360454,-0.8082 0.808194,-0.8082 z" />
    <path
       id="rect1-5-9-6"
       style="fill:#ffffff;fill-opacity:1;stroke-width:0.0855336"
       d="m 11.056569,121.5058 h 5.674319 c 0.447739,0 0.808194,0.36045 0.808194,0.80819 v 1.87979 c 0,0.44772 -0.360455,0.80819 -0.808194,0.80819 h -5.674319 c -0.44774,0 -0.808194,-0.36047 -0.808194,-0.80819 v -1.87979 c 0,-0.44774 0.360454,-0.80819 0.808194,-0.80819 z" />
    <path
       id="rect1-0-1"
       style="fill:#ffffff;fill-opacity:1;stroke-width:0.0855336"
       d="m 11.056569,127.79429 h 5.674319 c 0.447739,0 0.808194,0.36046 0.808194,0.80819 v 1.87979 c 0,0.44773 -0.360455,0.80819 -0.808194,0.80819 h -5.674319 c -0.44774,0 -0.808194,-0.36046 -0.808194,-0.80819 v -1.87979 c 0,-0.44773 0.360454,-0.80819 0.808194,-0.80819 z" />
    <path
       id="rect1-5-93-2"
       style="fill:#ffffff;fill-opacity:1;stroke-width:0.0855336"
       d="m 11.056569,133.70806 h 5.674319 c 0.447739,0 0.808194,0.36045 0.808194,0.8082 v 1.87978 c 0,0.44774 -0.360455,0.8082 -0.808194,0.8082 h -5.674319 c -0.44774,0 -0.808194,-0.36046 -0.808194,-0.8082 v -1.87978 c 0,-0.44775 0.360454,-0.8082 0.808194,-0.8082 z" />
    <path
       id="rect1-2-6-9"
       style="fill:#ffffff;fill-opacity:1;stroke-width:0.0855336"
       d="m 11.056569,139.46876 h 5.674319 c 0.447739,0 0.808194,0.36047 0.808194,0.80819 v 1.8798 c 0,0.44773 -0.360455,0.80819 -0.808194,0.80819 h -5.674319 c -0.44774,0 -0.808194,-0.36046 -0.808194,-0.80819 v -1.8798 c 0,-0.44772 0.360454,-0.80819 0.808194,-0.80819 z" />
    <path
       id="rect1-5-9-0-31"
       style="fill:#ffffff;fill-opacity:1;stroke-width:0.0855336"
       d="m 11.056569,145.38254 h 5.674319 c 0.447739,0 0.808194,0.36046 0.808194,0.8082 v 1.87978 c 0,0.44773 -0.360455,0.8082 -0.808194,0.8082 h -5.674319 c -0.44774,0 -0.808194,-0.36047 -0.808194,-0.8082 v -1.87978 c 0,-0.44774 0.360454,-0.8082 0.808194,-0.8082 z" />
    <path
       id="rect1-5-8-8"
       style="fill:#ffffff;fill-opacity:1;stroke-width:0.0855336"
       d="m 11.056568,151.38024 h 5.67432 c 0.44774,0 0.808194,0.36045 0.808194,0.8082 v 1.87978 c 0,0.44773 -0.360454,0.8082 -0.808194,0.8082 h -5.67432 c -0.447739,0 -0.808194,-0.36047 -0.808194,-0.8082 v -1.87978 c 0,-0.44775 0.360455,-0.8082 0.808194,-0.8082 z" />
    <path
       id="rect1-2-7-4"
       style="fill:#ffffff;fill-opacity:1;stroke-width:0.0855336"
       d="m 11.056568,157.14094 h 5.67432 c 0.44774,0 0.808194,0.36046 0.808194,0.80819 v 1.87979 c 0,0.44774 -0.360454,0.8082 -0.808194,0.8082 h -5.67432 c -0.447739,0 -0.808194,-0.36046 -0.808194,-0.8082 v -1.87979 c 0,-0.44773 0.360455,-0.80819 0.808194,-0.80819 z" />
    <path
       id="rect1-5-9-9-5"
       style="fill:#ffffff;fill-opacity:1;stroke-width:0.0855336"
       d="m 11.056568,163.05472 h 5.67432 c 0.44774,0 0.808194,0.36046 0.808194,0.8082 v 1.87978 c 0,0.44773 -0.360454,0.8082 -0.808194,0.8082 h -5.67432 c -0.447739,0 -0.808194,-0.36047 -0.808194,-0.8082 v -1.87978 c 0,-0.44774 0.360455,-0.8082 0.808194,-0.8082 z" />
    <path
       id="rect1-0-2-0"
       style="fill:#ffffff;fill-opacity:1;stroke-width:0.0855336"
       d="m 11.05657,169.34322 h 5.674316 c 0.44774,0 0.808194,0.36045 0.808194,0.80819 v 1.87979 c 0,0.44773 -0.360454,0.80819 -0.808194,0.80819 H 11.05657 c -0.44774,0 -0.808194,-0.36046 -0.808194,-0.80819 v -1.87979 c 0,-0.44774 0.360454,-0.80819 0.808194,-0.80819 z" />
    <path
       id="rect1-5-93-0-3"
       style="fill:#ffffff;fill-opacity:1;stroke-width:0.0855336"
       d="m 11.05657,175.25698 h 5.674316 c 0.44774,0 0.808194,0.36047 0.808194,0.8082 v 1.87979 c 0,0.44773 -0.360454,0.80819 -0.808194,0.80819 H 11.05657 c -0.44774,0 -0.808194,-0.36046 -0.808194,-0.80819 v -1.87979 c 0,-0.44773 0.360454,-0.8082 0.808194,-0.8082 z" />
    <path
       id="rect1-2-6-2-6"
       style="fill:#ffffff;fill-opacity:1;stroke-width:0.0855336"
       d="m 11.056568,181.01769 h 5.67432 c 0.44774,0 0.808194,0.36046 0.808194,0.80819 v 1.87979 c 0,0.44773 -0.360454,0.80819 -0.808194,0.80819 h -5.67432 c -0.447739,0 -0.808194,-0.36046 -0.808194,-0.80819 v -1.87979 c 0,-0.44773 0.360455,-0.80819 0.808194,-0.80819 z" />
    <path
       id="rect1-5-9-0-3-1"
       style="fill:#ffffff;fill-opacity:1;stroke-width:0.0855336"
       d="m 11.056568,186.93146 h 5.67432 c 0.44774,0 0.808194,0.36047 0.808194,0.8082 v 1.87979 c 0,0.44774 -0.360454,0.80819 -0.808194,0.80819 h -5.67432 c -0.447739,0 -0.808194,-0.36045 -0.808194,-0.80819 v -1.87979 c 0,-0.44773 0.360455,-0.8082 0.808194,-0.8082 z" />
    <path
       id="rect1-22-0"
       style="fill:#ffffff;fill-opacity:1;stroke-width:0.0855336"
       d="m 11.056568,192.77054 h 5.67432 c 0.44774,0 0.808194,0.36045 0.808194,0.80819 v 1.87979 c 0,0.44773 -0.360454,0.80819 -0.808194,0.80819 h -5.67432 c -0.447739,0 -0.808194,-0.36046 -0.808194,-0.80819 v -1.87979 c 0,-0.44774 0.360455,-0.80819 0.808194,-0.80819 z" />
    <path
       id="rect1-5-89-6"
       style="fill:#ffffff;fill-opacity:1;stroke-width:0.0855336"
       d="m 11.056568,198.68431 h 5.67432 c 0.44774,0 0.808194,0.36047 0.808194,0.8082 v 1.87978 c 0,0.44774 -0.360454,0.8082 -0.808194,0.8082 h -5.67432 c -0.447739,0 -0.808194,-0.36046 -0.808194,-0.8082 v -1.87978 c 0,-0.44773 0.360455,-0.8082 0.808194,-0.8082 z" />
    <path
       id="rect1-2-73-3"
       style="fill:#ffffff;fill-opacity:1;stroke-width:0.0855336"
       d="m 11.05657,204.44502 h 5.674316 c 0.44774,0 0.808194,0.36046 0.808194,0.80819 v 1.87979 c 0,0.44773 -0.360454,0.80819 -0.808194,0.80819 H 11.05657 c -0.44774,0 -0.808194,-0.36046 -0.808194,-0.80819 v -1.87979 c 0,-0.44773 0.360454,-0.80819 0.808194,-0.80819 z" />
    <path
       id="rect1-5-9-6-2"
       style="fill:#ffffff;fill-opacity:1;stroke-width:0.0855336"
       d="m 11.05657,210.35879 h 5.674316 c 0.44774,0 0.808194,0.36047 0.808194,0.8082 v 1.87978 c 0,0.44774 -0.360454,0.8082 -0.808194,0.8082 H 11.05657 c -0.44774,0 -0.808194,-0.36046 -0.808194,-0.8082 v -1.87978 c 0,-0.44773 0.360454,-0.8082 0.808194,-0.8082 z" />
    <path
       id="rect1-0-1-0"
       style="fill:#ffffff;fill-opacity:1;stroke-width:0.0855336"
       d="m 11.056568,216.64729 h 5.67432 c 0.44774,0 0.808194,0.36045 0.808194,0.80819 v 1.87979 c 0,0.44773 -0.360454,0.80819 -0.808194,0.80819 h -5.67432 c -0.447739,0 -0.808194,-0.36046 -0.808194,-0.80819 v -1.87979 c 0,-0.44774 0.360455,-0.80819 0.808194,-0.80819 z" />
    <path
       id="rect1-5-93-2-6"
       style="fill:#ffffff;fill-opacity:1;stroke-width:0.0855336"
       d="m 11.056568,222.56106 h 5.67432 c 0.44774,0 0.808194,0.36046 0.808194,0.80819 v 1.87979 c 0,0.44775 -0.360454,0.80819 -0.808194,0.80819 h -5.67432 c -0.447739,0 -0.808194,-0.36044 -0.808194,-0.80819 v -1.87979 c 0,-0.44773 0.360455,-0.80819 0.808194,-0.80819 z" />
    <path
       id="rect1-2-6-9-1"
       style="fill:#ffffff;fill-opacity:1;stroke-width:0.0855336"
       d="m 11.056568,228.32176 h 5.67432 c 0.44774,0 0.808194,0.36046 0.808194,0.80819 v 1.8798 c 0,0.44773 -0.360454,0.80819 -0.808194,0.80819 h -5.67432 c -0.447739,0 -0.808194,-0.36046 -0.808194,-0.80819 v -1.8798 c 0,-0.44773 0.360455,-0.80819 0.808194,-0.80819 z" />
    <path
       id="rect1-5-9-0-31-5"
       style="fill:#ffffff;fill-opacity:1;stroke-width:0.0855336"
       d="m 11.056568,234.23554 h 5.67432 c 0.44774,0 0.808194,0.36046 0.808194,0.80819 v 1.87979 c 0,0.44774 -0.360454,0.80819 -0.808194,0.80819 h -5.67432 c -0.447739,0 -0.808194,-0.36045 -0.808194,-0.80819 v -1.87979 c 0,-0.44773 0.360455,-0.80819 0.808194,-0.80819 z" />
    <g
       id="g4"
       transform="matrix(0.32327758,0,0,0.32327758,13.167754,6.2722854)"
       style="fill:#ffffff;fill-opacity:1">
      <path
         id="path1"
         style="fill:#ffffff;fill-opacity:1;stroke-width:0.264583"
         d="m 43.58704,8.6228322 h 44.010799 c 1.385,0 2.5,1.115 2.5,2.5000008 v 5.814766 c 0,1.385 -1.115,2.5 -2.5,2.5 H 43.58704 c -1.385,0 -2.500001,-1.115 -2.500001,-2.5 v -5.814766 c 0,-1.3850008 1.115001,-2.5000008 2.500001,-2.5000008 z"
         sodipodi:nodetypes="sssssssss" />
      <path
         id="path2"
         style="fill:#ffffff;fill-opacity:1;stroke-width:0.264583"
         d="m 98.091205,8.6228322 h 44.010805 c 1.385,0 2.5,1.115 2.5,2.5000008 v 5.814766 c 0,1.385 -1.115,2.5 -2.5,2.5 H 98.091205 c -1.384994,0 -2.499998,-1.115 -2.499998,-2.5 v -5.814766 c 0,-1.3850008 1.115004,-2.5000008 2.499998,-2.5000008 z"
         sodipodi:nodetypes="sssssssss" />
    </g>
    <g
       id="g5"
       transform="matrix(-0.32327758,0,0,0.32327758,73.599759,7.4550407)"
       style="fill:#ffffff;fill-opacity:1">
      <path
         id="path1-3"
         style="fill:#ffffff;fill-opacity:1;stroke-width:0.264583"
         d="m 44.833333,23.25738 h 54.594132 c 1.385005,0 2.500005,1.115 2.500005,2.500001 v 5.814766 c 0,1.385 -1.115,2.5 -2.500005,2.5 H 44.833333 c -1.385,0 -2.500001,-1.115 -2.500001,-2.5 v -5.814766 c 0,-1.385001 1.115001,-2.500001 2.500001,-2.500001 z"
         sodipodi:nodetypes="sssssssss" />
      <path
         id="path2-7"
         style="fill:#ffffff;fill-opacity:1;stroke-width:0.264583"
         d="m 109.92083,23.25738 h 33.42747 c 1.385,0 2.5,1.115 2.5,2.500001 v 5.814766 c 0,1.385 -1.115,2.5 -2.5,2.5 h -33.42747 c -1.38499,0 -2.5,-1.115 -2.5,-2.5 v -5.814766 c 0,-1.385001 1.11501,-2.500001 2.5,-2.500001 z"
         sodipodi:nodetypes="sssssssss" />
    </g>
    <g
       id="g14"
       style="fill:#ffffff;fill-opacity:1"
       transform="matrix(0.32327758,0,0,0.32327758,13.006786,9.7899363)">
      <path
         id="path1-3-5"
         style="fill:#ffffff;fill-opacity:1;stroke-width:0.261726"
         d="m 43.807878,52.206052 h 6.493954 c 1.37005,0 2.47301,1.102961 2.47301,2.473008 v 5.751984 c 0,1.370047 -1.10296,2.473008 -2.47301,2.473008 h -6.493954 c -1.370046,0 -2.473009,-1.10296 -2.473009,-2.473008 V 54.67906 c 0,-1.370047 1.102963,-2.473008 2.473009,-2.473008 z"
         sodipodi:nodetypes="sssssssss" />
      <path
         id="path3"
         style="fill:#ffffff;fill-opacity:1;stroke-width:0.261726"
         d="m 59.682879,52.206052 h 11.785619 c 1.37005,0 2.473007,1.102961 2.473007,2.473008 v 5.751984 c 0,1.370047 -1.102957,2.473008 -2.473007,2.473008 H 59.682879 c -1.370046,0 -2.473009,-1.10296 -2.473009,-2.473008 V 54.67906 c 0,-1.370047 1.102963,-2.473008 2.473009,-2.473008 z"
         sodipodi:nodetypes="sssssssss" />
      <path
         id="path4"
         style="fill:#ffffff;fill-opacity:1;stroke-width:0.261726"
         d="m 80.849547,52.206052 h 22.368943 c 1.37005,0 2.47301,1.102961 2.47301,2.473008 v 5.751984 c 0,1.370047 -1.10296,2.473008 -2.47301,2.473008 H 80.849547 c -1.370046,0 -2.473009,-1.10296 -2.473009,-2.473008 V 54.67906 c 0,-1.370047 1.102963,-2.473008 2.473009,-2.473008 z"
         sodipodi:nodetypes="sssssssss" />
      <path
         id="path1-3-5-3"
         style="fill:#ffffff;fill-opacity:1;stroke-width:0.261726"
         d="m 112.71547,52.206052 h 6.49396 c 1.37005,0 2.47301,1.102961 2.47301,2.473008 v 5.751984 c 0,1.370047 -1.10296,2.473008 -2.47301,2.473008 h -6.49396 c -1.37004,0 -2.47301,-1.102961 -2.47301,-2.473008 V 54.67906 c 0,-1.370047 1.10297,-2.473008 2.47301,-2.473008 z"
         sodipodi:nodetypes="sssssssss" />
      <path
         id="path3-0"
         style="fill:#ffffff;fill-opacity:1;stroke-width:0.261726"
         d="m 128.59048,52.206052 h 11.78562 c 1.37005,0 2.473,1.102961 2.473,2.473008 v 5.751984 c 0,1.370047 -1.10296,2.473008 -2.473,2.473008 h -11.78562 c -1.37005,0 -2.47301,-1.102961 -2.47301,-2.473008 V 54.67906 c 0,-1.370047 1.10296,-2.473008 2.47301,-2.473008 z"
         sodipodi:nodetypes="sssssssss" />
    </g>
    <g
       id="g13"
       style="fill:#ffffff;fill-opacity:1"
       transform="matrix(0.32327758,0,0,0.32327758,13.648291,11.047635)">
      <path
         id="path5"
         style="fill:#ffffff;fill-opacity:1;stroke-width:0.261726"
         d="m 43.807878,67.767893 h 6.493954 c 1.37005,0 2.47301,1.102961 2.47301,2.473008 v 5.751984 c 0,1.370047 -1.10296,2.473008 -2.47301,2.473008 h -6.493954 c -1.370046,0 -2.473009,-1.10296 -2.473009,-2.473008 v -5.751984 c 0,-1.370047 1.102963,-2.473008 2.473009,-2.473008 z"
         sodipodi:nodetypes="sssssssss" />
      <path
         id="path6"
         style="fill:#ffffff;fill-opacity:1;stroke-width:0.261726"
         d="m 59.682879,67.767893 h 22.368952 c 1.37005,0 2.473007,1.102961 2.473007,2.473008 v 5.751984 c 0,1.370047 -1.102957,2.473008 -2.473007,2.473008 H 59.682879 c -1.370046,0 -2.473009,-1.10296 -2.473009,-2.473008 v -5.751984 c 0,-1.370047 1.102963,-2.473008 2.473009,-2.473008 z"
         sodipodi:nodetypes="sssssssss" />
      <path
         id="path7"
         style="fill:#ffffff;fill-opacity:1;stroke-width:0.261726"
         d="m 91.43288,67.767893 h 11.78561 c 1.37005,0 2.47301,1.102961 2.47301,2.473008 v 5.751984 c 0,1.370047 -1.10296,2.473008 -2.47301,2.473008 H 91.43288 c -1.370046,0 -2.473009,-1.10296 -2.473009,-2.473008 v -5.751984 c 0,-1.370047 1.102963,-2.473008 2.473009,-2.473008 z"
         sodipodi:nodetypes="sssssssss" />
      <path
         id="path8"
         style="fill:#ffffff;fill-opacity:1;stroke-width:0.261726"
         d="m 112.71547,67.767893 h 43.53563 c 1.37005,0 2.47301,1.102961 2.47301,2.473008 v 5.751984 c 0,1.370047 -1.10296,2.473008 -2.47301,2.473008 h -43.53563 c -1.37004,0 -2.47301,-1.102961 -2.47301,-2.473008 v -5.751984 c 0,-1.370047 1.10297,-2.473008 2.47301,-2.473008 z"
         sodipodi:nodetypes="sssssssss" />
    </g>
    <g
       id="g12"
       style="fill:#ffffff;fill-opacity:1"
       transform="matrix(0.32327758,0,0,0.32327758,13.220622,12.23039)">
      <path
         id="path11"
         style="fill:#ffffff;fill-opacity:1;stroke-width:0.261726"
         d="m 43.807879,82.40244 h 27.66061 c 1.37005,0 2.47301,1.102961 2.47301,2.473009 v 5.751983 c 0,1.370047 -1.10296,2.473008 -2.47301,2.473008 h -27.66061 c -1.370046,0 -2.473009,-1.10296 -2.473009,-2.473008 v -5.751983 c 0,-1.370047 1.102963,-2.473009 2.473009,-2.473009 z"
         sodipodi:nodetypes="sssssssss" />
      <path
         id="path12"
         style="fill:#ffffff;fill-opacity:1;stroke-width:0.261726"
         d="m 80.96547,82.40244 h 64.7023 c 1.37005,0 2.47301,1.102961 2.47301,2.473009 v 5.751983 c 0,1.370047 -1.10296,2.473008 -2.47301,2.473008 h -64.7023 c -1.37004,0 -2.47301,-1.102961 -2.47301,-2.473008 v -5.751983 c 0,-1.370047 1.10297,-2.473009 2.47301,-2.473009 z"
         sodipodi:nodetypes="sssssssss" />
    </g>
    <g
       id="g101"
       transform="matrix(0.32327758,0,0,0.32327758,14.717465,15.9026)"
       style="fill:#ffffff;fill-opacity:1">
      <path
         id="path16"
         style="fill:#ffffff;fill-opacity:1;stroke-width:0.261726"
         d="m 161.54278,144.28318 h -27.66061 c -1.37005,0 -2.47301,1.10296 -2.47301,2.47301 v 5.75198 c 0,1.37005 1.10296,2.47301 2.47301,2.47301 h 27.66061 c 1.37005,0 2.47301,-1.10296 2.47301,-2.47301 v -5.75198 c 0,-1.37005 -1.10296,-2.47301 -2.47301,-2.47301 z"
         sodipodi:nodetypes="sssssssss" />
      <path
         id="path17"
         style="fill:#ffffff;fill-opacity:1;stroke-width:0.261726"
         d="M 124.38519,144.28318 H 64.97456 c -1.37005,0 -2.47301,1.10296 -2.47301,2.47301 v 5.75198 c 0,1.37005 1.10296,2.47301 2.47301,2.47301 h 59.41063 c 1.37004,0 2.47301,-1.10296 2.47301,-2.47301 v -5.75198 c 0,-1.37005 -1.10297,-2.47301 -2.47301,-2.47301 z"
         sodipodi:nodetypes="sssssssss" />
    </g>
    <g
       id="g99"
       transform="matrix(0.32327758,0,0,0.32327758,16.428143,14.164273)"
       style="fill:#ffffff;fill-opacity:1">
      <path
         id="path11-4"
         style="fill:#ffffff;fill-opacity:1;stroke-width:0.261726"
         d="m 64.974559,112.53318 h 27.66061 c 1.37005,0 2.47301,1.10296 2.47301,2.47301 v 5.75198 c 0,1.37005 -1.10296,2.47301 -2.47301,2.47301 h -27.66061 c -1.370046,0 -2.473009,-1.10296 -2.473009,-2.47301 v -5.75198 c 0,-1.37005 1.102963,-2.47301 2.473009,-2.47301 z"
         sodipodi:nodetypes="sssssssss" />
      <path
         id="path12-3"
         style="fill:#ffffff;fill-opacity:1;stroke-width:0.261726"
         d="m 144.46551,112.53318 h 59.41063 c 1.37005,0 2.47301,1.10296 2.47301,2.47301 v 5.75198 c 0,1.37005 -1.10296,2.47301 -2.47301,2.47301 h -59.41063 c -1.37004,0 -2.47301,-1.10296 -2.47301,-2.47301 v -5.75198 c 0,-1.37005 1.10297,-2.47301 2.47301,-2.47301 z"
         sodipodi:nodetypes="sssssssss" />
      <path
         id="path18-4"
         style="fill:#ffffff;fill-opacity:1;stroke-width:0.261726"
         d="m 102.87286,112.53318 h 32.9523 c 1.37005,0 2.47301,1.10295 2.47301,2.47301 v 5.75198 c 0,1.37005 -1.10296,2.47302 -2.47301,2.47302 h -32.9523 c -1.37004,0 -2.47301,-1.10297 -2.47301,-2.47302 v -5.75198 c 0,-1.37004 1.10297,-2.47301 2.47301,-2.47301 z"
         sodipodi:nodetypes="sssssssss" />
    </g>
    <g
       id="g98"
       style="fill:#ffffff;fill-opacity:1"
       transform="matrix(0.32327758,0,0,0.32327758,14.717465,13.38253)">
      <path
         id="path19"
         style="fill:#ffffff;fill-opacity:1;stroke-width:0.261726"
         d="m 64.974559,96.658173 h 27.66061 c 1.37005,0 2.47301,1.10296 2.47301,2.47301 v 5.751977 c 0,1.37005 -1.10296,2.47301 -2.47301,2.47301 h -27.66061 c -1.370046,0 -2.473009,-1.10296 -2.473009,-2.47301 v -5.751977 c 0,-1.37005 1.102963,-2.47301 2.473009,-2.47301 z"
         sodipodi:nodetypes="sssssssss" />
      <path
         id="path20"
         style="fill:#ffffff;fill-opacity:1;stroke-width:0.261726"
         d="m 102.13215,96.658173 h 59.41063 c 1.37005,0 2.47301,1.10296 2.47301,2.47301 v 5.751977 c 0,1.37005 -1.10296,2.47301 -2.47301,2.47301 h -59.41063 c -1.37004,0 -2.47301,-1.10296 -2.47301,-2.47301 v -5.751977 c 0,-1.37005 1.10297,-2.47301 2.47301,-2.47301 z"
         sodipodi:nodetypes="sssssssss" />
    </g>
    <g
       id="g102"
       transform="matrix(0.32327758,0,0,0.32327758,13.220622,16.863137)"
       style="fill:#ffffff;fill-opacity:1">
      <path
         id="path22"
         style="fill:#ffffff;fill-opacity:1;stroke-width:0.261726"
         d="m 43.807879,159.13161 h 27.66061 c 1.37005,0 2.47301,1.10296 2.47301,2.47301 v 5.75198 c 0,1.37005 -1.10296,2.47301 -2.47301,2.47301 h -27.66061 c -1.370046,0 -2.473009,-1.10296 -2.473009,-2.47301 v -5.75198 c 0,-1.37005 1.102963,-2.47301 2.473009,-2.47301 z"
         sodipodi:nodetypes="sssssssss" />
      <path
         id="path23"
         style="fill:#ffffff;fill-opacity:1;stroke-width:0.261726"
         d="m 80.96547,159.13161 h 64.7023 c 1.37005,0 2.47301,1.10296 2.47301,2.47301 v 5.75198 c 0,1.37005 -1.10296,2.47301 -2.47301,2.47301 h -64.7023 c -1.37004,0 -2.47301,-1.10296 -2.47301,-2.47301 v -5.75198 c 0,-1.37005 1.10297,-2.47301 2.47301,-2.47301 z"
         sodipodi:nodetypes="sssssssss" />
    </g>
    <g
       id="g28"
       transform="matrix(0.32327758,0,0,-0.32327758,13.006787,148.14863)"
       style="fill:#ffffff;fill-opacity:1">
      <path
         id="path24"
         style="fill:#ffffff;fill-opacity:1;stroke-width:0.261726"
         d="m 43.807878,52.206052 h 6.493954 c 1.37005,0 2.47301,1.102961 2.47301,2.473008 v 5.751984 c 0,1.370047 -1.10296,2.473008 -2.47301,2.473008 h -6.493954 c -1.370046,0 -2.473009,-1.10296 -2.473009,-2.473008 V 54.67906 c 0,-1.370047 1.102963,-2.473008 2.473009,-2.473008 z"
         sodipodi:nodetypes="sssssssss" />
      <path
         id="path25"
         style="fill:#ffffff;fill-opacity:1;stroke-width:0.261726"
         d="m 59.682879,52.206052 h 11.785619 c 1.37005,0 2.473007,1.102961 2.473007,2.473008 v 5.751984 c 0,1.370047 -1.102957,2.473008 -2.473007,2.473008 H 59.682879 c -1.370046,0 -2.473009,-1.10296 -2.473009,-2.473008 V 54.67906 c 0,-1.370047 1.102963,-2.473008 2.473009,-2.473008 z"
         sodipodi:nodetypes="sssssssss" />
      <path
         id="path26"
         style="fill:#ffffff;fill-opacity:1;stroke-width:0.261726"
         d="m 80.849547,52.206052 h 22.368943 c 1.37005,0 2.47301,1.102961 2.47301,2.473008 v 5.751984 c 0,1.370047 -1.10296,2.473008 -2.47301,2.473008 H 80.849547 c -1.370046,0 -2.473009,-1.10296 -2.473009,-2.473008 V 54.67906 c 0,-1.370047 1.102963,-2.473008 2.473009,-2.473008 z"
         sodipodi:nodetypes="sssssssss" />
      <path
         id="path27"
         style="fill:#ffffff;fill-opacity:1;stroke-width:0.261726"
         d="m 112.71547,52.206052 h 6.49396 c 1.37005,0 2.47301,1.102961 2.47301,2.473008 v 5.751984 c 0,1.370047 -1.10296,2.473008 -2.47301,2.473008 h -6.49396 c -1.37004,0 -2.47301,-1.102961 -2.47301,-2.473008 V 54.67906 c 0,-1.370047 1.10297,-2.473008 2.47301,-2.473008 z"
         sodipodi:nodetypes="sssssssss" />
      <path
         id="path28"
         style="fill:#ffffff;fill-opacity:1;stroke-width:0.261726"
         d="m 128.59048,52.206052 h 11.78562 c 1.37005,0 2.473,1.102961 2.473,2.473008 v 5.751984 c 0,1.370047 -1.10296,2.473008 -2.473,2.473008 h -11.78562 c -1.37005,0 -2.47301,-1.102961 -2.47301,-2.473008 V 54.67906 c 0,-1.370047 1.10296,-2.473008 2.47301,-2.473008 z"
         sodipodi:nodetypes="sssssssss" />
    </g>
    <g
       id="g32"
       transform="matrix(0.32327758,0,0,-0.32327758,13.648291,146.89093)"
       style="fill:#ffffff;fill-opacity:1">
      <path
         id="path29"
         style="fill:#ffffff;fill-opacity:1;stroke-width:0.261726"
         d="m 43.807878,67.767893 h 6.493954 c 1.37005,0 2.47301,1.102961 2.47301,2.473008 v 5.751984 c 0,1.370047 -1.10296,2.473008 -2.47301,2.473008 h -6.493954 c -1.370046,0 -2.473009,-1.10296 -2.473009,-2.473008 v -5.751984 c 0,-1.370047 1.102963,-2.473008 2.473009,-2.473008 z"
         sodipodi:nodetypes="sssssssss" />
      <path
         id="path30"
         style="fill:#ffffff;fill-opacity:1;stroke-width:0.261726"
         d="m 59.682879,67.767893 h 22.368952 c 1.37005,0 2.473007,1.102961 2.473007,2.473008 v 5.751984 c 0,1.370047 -1.102957,2.473008 -2.473007,2.473008 H 59.682879 c -1.370046,0 -2.473009,-1.10296 -2.473009,-2.473008 v -5.751984 c 0,-1.370047 1.102963,-2.473008 2.473009,-2.473008 z"
         sodipodi:nodetypes="sssssssss" />
      <path
         id="path31"
         style="fill:#ffffff;fill-opacity:1;stroke-width:0.261726"
         d="m 91.43288,67.767893 h 11.78561 c 1.37005,0 2.47301,1.102961 2.47301,2.473008 v 5.751984 c 0,1.370047 -1.10296,2.473008 -2.47301,2.473008 H 91.43288 c -1.370046,0 -2.473009,-1.10296 -2.473009,-2.473008 v -5.751984 c 0,-1.370047 1.102963,-2.473008 2.473009,-2.473008 z"
         sodipodi:nodetypes="sssssssss" />
      <path
         id="path32"
         style="fill:#ffffff;fill-opacity:1;stroke-width:0.261726"
         d="m 112.71547,67.767893 h 43.53563 c 1.37005,0 2.47301,1.102961 2.47301,2.473008 v 5.751984 c 0,1.370047 -1.10296,2.473008 -2.47301,2.473008 h -43.53563 c -1.37004,0 -2.47301,-1.102961 -2.47301,-2.473008 v -5.751984 c 0,-1.370047 1.10297,-2.473008 2.47301,-2.473008 z"
         sodipodi:nodetypes="sssssssss" />
    </g>
    <g
       id="g108"
       transform="matrix(0.32327758,0,0,0.32327758,13.220622,26.030041)"
       style="fill:#ffffff;fill-opacity:1">
      <path
         id="path33"
         style="fill:#ffffff;fill-opacity:1;stroke-width:0.261726"
         d="m 43.807879,287.79996 h 27.66061 c 1.37005,0 2.47301,-1.10296 2.47301,-2.47301 v -5.75198 c 0,-1.37005 -1.10296,-2.47301 -2.47301,-2.47301 h -27.66061 c -1.370046,0 -2.473009,1.10296 -2.473009,2.47301 v 5.75198 c 0,1.37005 1.102963,2.47301 2.473009,2.47301 z"
         sodipodi:nodetypes="sssssssss" />
      <path
         id="path34"
         style="fill:#ffffff;fill-opacity:1;stroke-width:0.261726"
         d="m 80.96547,287.79996 h 64.7023 c 1.37005,0 2.47301,-1.10296 2.47301,-2.47301 v -5.75198 c 0,-1.37005 -1.10296,-2.47301 -2.47301,-2.47301 h -64.7023 c -1.37004,0 -2.47301,1.10296 -2.47301,2.47301 v 5.75198 c 0,1.37005 1.10297,2.47301 2.47301,2.47301 z"
         sodipodi:nodetypes="sssssssss" />
    </g>
    <g
       id="g106"
       transform="matrix(0.32327758,0,0,0.32327758,16.428142,24.096174)"
       style="fill:#ffffff;fill-opacity:1">
      <path
         id="path35"
         style="fill:#ffffff;fill-opacity:1;stroke-width:0.261726"
         d="m 86.141227,257.66916 h 27.660613 c 1.37005,0 2.47302,-1.10296 2.47302,-2.47301 v -5.75198 c 0,-1.37005 -1.10297,-2.47301 -2.47302,-2.47301 H 86.141227 c -1.370046,0 -2.473009,1.10296 -2.473009,2.47301 v 5.75198 c 0,1.37005 1.102963,2.47301 2.473009,2.47301 z"
         sodipodi:nodetypes="sssssssss" />
      <path
         id="path36"
         style="fill:#ffffff;fill-opacity:1;stroke-width:0.261726"
         d="m 123.29883,257.66916 h 59.41063 c 1.37005,0 2.47301,-1.10296 2.47301,-2.47301 v -5.75198 c 0,-1.37005 -1.10296,-2.47301 -2.47301,-2.47301 h -59.41063 c -1.37004,0 -2.47301,1.10296 -2.47301,2.47301 v 5.75198 c 0,1.37005 1.10297,2.47301 2.47301,2.47301 z"
         sodipodi:nodetypes="sssssssss" />
    </g>
    <g
       id="g107"
       transform="matrix(0.32327758,0,0,0.32327758,17.069646,24.877917)"
       style="fill:#ffffff;fill-opacity:1">
      <path
         id="path42"
         style="fill:#ffffff;fill-opacity:1;stroke-width:0.261726"
         d="m 64.974559,273.54417 h 27.66061 c 1.37005,0 2.47301,-1.10296 2.47301,-2.47301 v -5.75198 c 0,-1.37005 -1.10296,-2.47301 -2.47301,-2.47301 h -27.66061 c -1.370046,0 -2.473009,1.10296 -2.473009,2.47301 v 5.75198 c 0,1.37005 1.102963,2.47301 2.473009,2.47301 z"
         sodipodi:nodetypes="sssssssss" />
      <path
         id="path43"
         style="fill:#ffffff;fill-opacity:1;stroke-width:0.261726"
         d="m 102.13215,273.54417 h 117.61896 c 1.37005,0 2.47301,-1.10296 2.47301,-2.47301 v -5.75198 c 0,-1.37005 -1.10296,-2.47301 -2.47301,-2.47301 H 102.13215 c -1.37004,0 -2.47301,1.10296 -2.47301,2.47301 v 5.75198 c 0,1.37005 1.10297,2.47301 2.47301,2.47301 z"
         sodipodi:nodetypes="sssssssss" />
    </g>
    <g
       id="g100"
       transform="matrix(0.32327758,0,0,0.32327758,18.635723,15.086935)"
       style="fill:#ffffff;fill-opacity:1">
      <path
         id="path18"
         style="fill:#ffffff;fill-opacity:1;stroke-width:0.261726"
         d="m 134.73881,128.61802 h 59.41063 c 1.37005,0 2.47301,1.10296 2.47301,2.47301 v 5.75199 c 0,1.37004 -1.10296,2.47301 -2.47301,2.47301 h -59.41063 c -1.37004,0 -2.47301,-1.10297 -2.47301,-2.47301 v -5.75199 c 0,-1.37004 1.10297,-2.47301 2.47301,-2.47301 z"
         sodipodi:nodetypes="sssssssss" />
      <path
         id="path14"
         style="fill:#ffffff;fill-opacity:1;stroke-width:0.261726"
         d="m 86.141226,128.40818 h 6.493943 c 1.37005,0 2.47301,1.10296 2.47301,2.47301 v 5.75198 c 0,1.37005 -1.10296,2.47301 -2.47301,2.47301 h -6.493943 c -1.370046,0 -2.473009,-1.10296 -2.473009,-2.47301 v -5.75198 c 0,-1.37005 1.102963,-2.47301 2.473009,-2.47301 z"
         sodipodi:nodetypes="sssssssss" />
      <path
         id="path15"
         style="fill:#ffffff;fill-opacity:1;stroke-width:0.261726"
         d="m 102.13215,128.40818 h 22.36897 c 1.37005,0 2.47301,1.10296 2.47301,2.47301 v 5.75198 c 0,1.37005 -1.10296,2.47301 -2.47301,2.47301 h -22.36897 c -1.37004,0 -2.47301,-1.10296 -2.47301,-2.47301 v -5.75198 c 0,-1.37005 1.10297,-2.47301 2.47301,-2.47301 z"
         sodipodi:nodetypes="sssssssss" />
      <path
         id="path46"
         style="fill:#ffffff;fill-opacity:1;stroke-width:0.261726"
         d="m 204.38713,128.61802 h 32.9523 c 1.37005,0 2.47301,1.10295 2.47301,2.47301 v 5.75198 c 0,1.37005 -1.10296,2.47302 -2.47301,2.47302 h -32.9523 c -1.37004,0 -2.47301,-1.10297 -2.47301,-2.47302 v -5.75198 c 0,-1.37004 1.10297,-2.47301 2.47301,-2.47301 z"
         sodipodi:nodetypes="sssssssss" />
    </g>
    <g
       id="g103"
       transform="matrix(0.32327758,0,0,0.32327758,16.035089,21.646847)"
       style="fill:#ffffff;fill-opacity:1">
      <path
         id="path44"
         style="fill:#ffffff;fill-opacity:1;stroke-width:0.261726"
         d="m 43.807879,211.07075 h 27.66061 c 1.37005,0 2.47301,-1.10296 2.47301,-2.47301 v -5.75198 c 0,-1.37005 -1.10296,-2.47301 -2.47301,-2.47301 h -27.66061 c -1.370046,0 -2.473009,1.10296 -2.473009,2.47301 v 5.75198 c 0,1.37005 1.102963,2.47301 2.473009,2.47301 z"
         sodipodi:nodetypes="sssssssss" />
      <path
         id="path45"
         style="fill:#ffffff;fill-opacity:1;stroke-width:0.261726"
         d="m 80.96547,211.07075 h 64.7023 c 1.37005,0 2.47301,-1.10296 2.47301,-2.47301 v -5.75198 c 0,-1.37005 -1.10296,-2.47301 -2.47301,-2.47301 h -64.7023 c -1.37004,0 -2.47301,1.10296 -2.47301,2.47301 v 5.75198 c 0,1.37005 1.10297,2.47301 2.47301,2.47301 z"
         sodipodi:nodetypes="sssssssss" />
      <path
         id="path47"
         style="fill:#ffffff;fill-opacity:1;stroke-width:0.261726"
         d="m 155.90546,211.07075 h 59.41063 c 1.37005,0 2.47301,-1.10296 2.47301,-2.47301 v -5.75198 c 0,-1.37005 -1.10296,-2.47301 -2.47301,-2.47301 h -59.41063 c -1.37004,0 -2.47301,1.10296 -2.47301,2.47301 v 5.75198 c 0,1.37005 1.10297,2.47301 2.47301,2.47301 z"
         sodipodi:nodetypes="sssssssss" />
    </g>
    <g
       id="g104"
       transform="matrix(0.32327758,0,0,0.32327758,15.393585,22.607384)"
       style="fill:#ffffff;fill-opacity:1">
      <path
         id="path40"
         style="fill:#ffffff;fill-opacity:1;stroke-width:0.261726"
         d="m 161.54278,225.91918 h -27.66061 c -1.37005,0 -2.47301,-1.10296 -2.47301,-2.47301 v -5.75198 c 0,-1.37005 1.10296,-2.47301 2.47301,-2.47301 h 27.66061 c 1.37005,0 2.47301,1.10296 2.47301,2.47301 v 5.75198 c 0,1.37005 -1.10296,2.47301 -2.47301,2.47301 z"
         sodipodi:nodetypes="sssssssss" />
      <path
         id="path41"
         style="fill:#ffffff;fill-opacity:1;stroke-width:0.261726"
         d="M 124.38519,225.91918 H 64.97456 c -1.37005,0 -2.47301,-1.10296 -2.47301,-2.47301 v -5.75198 c 0,-1.37005 1.10296,-2.47301 2.47301,-2.47301 h 59.41063 c 1.37004,0 2.47301,1.10296 2.47301,2.47301 v 5.75198 c 0,1.37005 -1.10297,2.47301 -2.47301,2.47301 z"
         sodipodi:nodetypes="sssssssss" />
      <path
         id="path48"
         style="fill:#ffffff;fill-opacity:1;stroke-width:0.261726"
         d="m 171.78047,225.91918 h 6.49394 c 1.37005,0 2.47301,-1.10296 2.47301,-2.47301 v -5.75198 c 0,-1.37005 -1.10296,-2.47301 -2.47301,-2.47301 h -6.49394 c -1.37005,0 -2.47301,1.10296 -2.47301,2.47301 v 5.75198 c 0,1.37005 1.10296,2.47301 2.47301,2.47301 z"
         sodipodi:nodetypes="sssssssss" />
    </g>
    <g
       id="g105"
       transform="matrix(0.32327758,0,0,0.32327758,19.918731,23.423051)"
       style="fill:#ffffff;fill-opacity:1">
      <path
         id="path37"
         style="fill:#ffffff;fill-opacity:1;stroke-width:0.261726"
         d="m 134.73881,241.58432 h 59.41063 c 1.37005,0 2.47301,-1.10296 2.47301,-2.47301 v -5.75199 c 0,-1.37004 -1.10296,-2.47301 -2.47301,-2.47301 h -59.41063 c -1.37004,0 -2.47301,1.10297 -2.47301,2.47301 v 5.75199 c 0,1.37004 1.10297,2.47301 2.47301,2.47301 z"
         sodipodi:nodetypes="sssssssss" />
      <path
         id="path38"
         style="fill:#ffffff;fill-opacity:1;stroke-width:0.261726"
         d="m 86.141226,241.79419 h 6.493943 c 1.37005,0 2.47301,-1.10296 2.47301,-2.47301 v -5.75198 c 0,-1.37005 -1.10296,-2.47301 -2.47301,-2.47301 h -6.493943 c -1.370046,0 -2.473009,1.10296 -2.473009,2.47301 v 5.75198 c 0,1.37005 1.102963,2.47301 2.473009,2.47301 z"
         sodipodi:nodetypes="sssssssss" />
      <path
         id="path39"
         style="fill:#ffffff;fill-opacity:1;stroke-width:0.261726"
         d="m 102.13215,241.79419 h 22.36897 c 1.37005,0 2.47301,-1.10296 2.47301,-2.47301 v -5.75198 c 0,-1.37005 -1.10296,-2.47301 -2.47301,-2.47301 h -22.36897 c -1.37004,0 -2.47301,1.10296 -2.47301,2.47301 v 5.75198 c 0,1.37005 1.10297,2.47301 2.47301,2.47301 z"
         sodipodi:nodetypes="sssssssss" />
      <path
         id="path49"
         style="fill:#ffffff;fill-opacity:1;stroke-width:0.261726"
         d="m 204.38713,241.58431 h 64.7023 c 1.37005,0 2.47301,-1.10296 2.47301,-2.473 v -5.75199 c 0,-1.37004 -1.10296,-2.473 -2.47301,-2.473 h -64.7023 c -1.37004,0 -2.47301,1.10296 -2.47301,2.473 v 5.75199 c 0,1.37004 1.10297,2.473 2.47301,2.473 z"
         sodipodi:nodetypes="sssssssss" />
    </g>
    <g
       id="g112"
       transform="matrix(0.32327758,0,0,0.32327758,13.006786,128.50078)"
       style="fill:#ffffff;fill-opacity:1">
      <path
         id="path108"
         style="fill:#ffffff;fill-opacity:1;stroke-width:0.261726"
         d="m 43.807878,52.206052 h 6.493954 c 1.37005,0 2.47301,1.102961 2.47301,2.473008 v 5.751984 c 0,1.370047 -1.10296,2.473008 -2.47301,2.473008 h -6.493954 c -1.370046,0 -2.473009,-1.10296 -2.473009,-2.473008 V 54.67906 c 0,-1.370047 1.102963,-2.473008 2.473009,-2.473008 z"
         sodipodi:nodetypes="sssssssss" />
      <path
         id="path109"
         style="fill:#ffffff;fill-opacity:1;stroke-width:0.261726"
         d="m 59.682879,52.206052 h 11.785619 c 1.37005,0 2.473007,1.102961 2.473007,2.473008 v 5.751984 c 0,1.370047 -1.102957,2.473008 -2.473007,2.473008 H 59.682879 c -1.370046,0 -2.473009,-1.10296 -2.473009,-2.473008 V 54.67906 c 0,-1.370047 1.102963,-2.473008 2.473009,-2.473008 z"
         sodipodi:nodetypes="sssssssss" />
      <path
         id="path110"
         style="fill:#ffffff;fill-opacity:1;stroke-width:0.261726"
         d="m 80.849547,52.206052 h 22.368943 c 1.37005,0 2.47301,1.102961 2.47301,2.473008 v 5.751984 c 0,1.370047 -1.10296,2.473008 -2.47301,2.473008 H 80.849547 c -1.370046,0 -2.473009,-1.10296 -2.473009,-2.473008 V 54.67906 c 0,-1.370047 1.102963,-2.473008 2.473009,-2.473008 z"
         sodipodi:nodetypes="sssssssss" />
      <path
         id="path111"
         style="fill:#ffffff;fill-opacity:1;stroke-width:0.261726"
         d="m 112.71547,52.206052 h 6.49396 c 1.37005,0 2.47301,1.102961 2.47301,2.473008 v 5.751984 c 0,1.370047 -1.10296,2.473008 -2.47301,2.473008 h -6.49396 c -1.37004,0 -2.47301,-1.102961 -2.47301,-2.473008 V 54.67906 c 0,-1.370047 1.10297,-2.473008 2.47301,-2.473008 z"
         sodipodi:nodetypes="sssssssss" />
      <path
         id="path112"
         style="fill:#ffffff;fill-opacity:1;stroke-width:0.261726"
         d="m 128.59048,52.206052 h 11.78562 c 1.37005,0 2.473,1.102961 2.473,2.473008 v 5.751984 c 0,1.370047 -1.10296,2.473008 -2.473,2.473008 h -11.78562 c -1.37005,0 -2.47301,-1.102961 -2.47301,-2.473008 V 54.67906 c 0,-1.370047 1.10296,-2.473008 2.47301,-2.473008 z"
         sodipodi:nodetypes="sssssssss" />
    </g>
    <g
       id="g116"
       transform="matrix(0.32327758,0,0,0.32327758,13.648291,129.75848)"
       style="fill:#ffffff;fill-opacity:1">
      <path
         id="path113"
         style="fill:#ffffff;fill-opacity:1;stroke-width:0.261726"
         d="m 43.807878,67.767893 h 6.493954 c 1.37005,0 2.47301,1.102961 2.47301,2.473008 v 5.751984 c 0,1.370047 -1.10296,2.473008 -2.47301,2.473008 h -6.493954 c -1.370046,0 -2.473009,-1.10296 -2.473009,-2.473008 v -5.751984 c 0,-1.370047 1.102963,-2.473008 2.473009,-2.473008 z"
         sodipodi:nodetypes="sssssssss" />
      <path
         id="path114"
         style="fill:#ffffff;fill-opacity:1;stroke-width:0.261726"
         d="m 59.682879,67.767893 h 22.368952 c 1.37005,0 2.473007,1.102961 2.473007,2.473008 v 5.751984 c 0,1.370047 -1.102957,2.473008 -2.473007,2.473008 H 59.682879 c -1.370046,0 -2.473009,-1.10296 -2.473009,-2.473008 v -5.751984 c 0,-1.370047 1.102963,-2.473008 2.473009,-2.473008 z"
         sodipodi:nodetypes="sssssssss" />
      <path
         id="path115"
         style="fill:#ffffff;fill-opacity:1;stroke-width:0.261726"
         d="m 91.43288,67.767893 h 11.78561 c 1.37005,0 2.47301,1.102961 2.47301,2.473008 v 5.751984 c 0,1.370047 -1.10296,2.473008 -2.47301,2.473008 H 91.43288 c -1.370046,0 -2.473009,-1.10296 -2.473009,-2.473008 v -5.751984 c 0,-1.370047 1.102963,-2.473008 2.473009,-2.473008 z"
         sodipodi:nodetypes="sssssssss" />
      <path
         id="path116"
         style="fill:#ffffff;fill-opacity:1;stroke-width:0.261726"
         d="m 112.71547,67.767893 h 43.53563 c 1.37005,0 2.47301,1.102961 2.47301,2.473008 v 5.751984 c 0,1.370047 -1.10296,2.473008 -2.47301,2.473008 h -43.53563 c -1.37004,0 -2.47301,-1.102961 -2.47301,-2.473008 v -5.751984 c 0,-1.370047 1.10297,-2.473008 2.47301,-2.473008 z"
         sodipodi:nodetypes="sssssssss" />
    </g>
    <g
       id="g118"
       transform="matrix(0.32327758,0,0,0.32327758,13.220622,130.94124)"
       style="fill:#ffffff;fill-opacity:1">
      <path
         id="path117"
         style="fill:#ffffff;fill-opacity:1;stroke-width:0.261726"
         d="m 43.807879,82.40244 h 27.66061 c 1.37005,0 2.47301,1.102961 2.47301,2.473009 v 5.751983 c 0,1.370047 -1.10296,2.473008 -2.47301,2.473008 h -27.66061 c -1.370046,0 -2.473009,-1.10296 -2.473009,-2.473008 v -5.751983 c 0,-1.370047 1.102963,-2.473009 2.473009,-2.473009 z"
         sodipodi:nodetypes="sssssssss" />
      <path
         id="path118"
         style="fill:#ffffff;fill-opacity:1;stroke-width:0.261726"
         d="m 80.96547,82.40244 h 64.7023 c 1.37005,0 2.47301,1.102961 2.47301,2.473009 v 5.751983 c 0,1.370047 -1.10296,2.473008 -2.47301,2.473008 h -64.7023 c -1.37004,0 -2.47301,-1.102961 -2.47301,-2.473008 v -5.751983 c 0,-1.370047 1.10297,-2.473009 2.47301,-2.473009 z"
         sodipodi:nodetypes="sssssssss" />
    </g>
    <g
       id="g120"
       transform="matrix(0.32327758,0,0,0.32327758,14.717465,134.61344)"
       style="fill:#ffffff;fill-opacity:1">
      <path
         id="path119"
         style="fill:#ffffff;fill-opacity:1;stroke-width:0.261726"
         d="m 161.54278,144.28318 h -27.66061 c -1.37005,0 -2.47301,1.10296 -2.47301,2.47301 v 5.75198 c 0,1.37005 1.10296,2.47301 2.47301,2.47301 h 27.66061 c 1.37005,0 2.47301,-1.10296 2.47301,-2.47301 v -5.75198 c 0,-1.37005 -1.10296,-2.47301 -2.47301,-2.47301 z"
         sodipodi:nodetypes="sssssssss" />
      <path
         id="path120"
         style="fill:#ffffff;fill-opacity:1;stroke-width:0.261726"
         d="M 124.38519,144.28318 H 64.97456 c -1.37005,0 -2.47301,1.10296 -2.47301,2.47301 v 5.75198 c 0,1.37005 1.10296,2.47301 2.47301,2.47301 h 59.41063 c 1.37004,0 2.47301,-1.10296 2.47301,-2.47301 v -5.75198 c 0,-1.37005 -1.10297,-2.47301 -2.47301,-2.47301 z"
         sodipodi:nodetypes="sssssssss" />
    </g>
    <g
       id="g123"
       transform="matrix(0.32327758,0,0,0.32327758,16.428143,132.87512)"
       style="fill:#ffffff;fill-opacity:1">
      <path
         id="path121"
         style="fill:#ffffff;fill-opacity:1;stroke-width:0.261726"
         d="m 64.974559,112.53318 h 27.66061 c 1.37005,0 2.47301,1.10296 2.47301,2.47301 v 5.75198 c 0,1.37005 -1.10296,2.47301 -2.47301,2.47301 h -27.66061 c -1.370046,0 -2.473009,-1.10296 -2.473009,-2.47301 v -5.75198 c 0,-1.37005 1.102963,-2.47301 2.473009,-2.47301 z"
         sodipodi:nodetypes="sssssssss" />
      <path
         id="path122"
         style="fill:#ffffff;fill-opacity:1;stroke-width:0.261726"
         d="m 144.46551,112.53318 h 59.41063 c 1.37005,0 2.47301,1.10296 2.47301,2.47301 v 5.75198 c 0,1.37005 -1.10296,2.47301 -2.47301,2.47301 h -59.41063 c -1.37004,0 -2.47301,-1.10296 -2.47301,-2.47301 v -5.75198 c 0,-1.37005 1.10297,-2.47301 2.47301,-2.47301 z"
         sodipodi:nodetypes="sssssssss" />
      <path
         id="path123"
         style="fill:#ffffff;fill-opacity:1;stroke-width:0.261726"
         d="m 102.87286,112.53318 h 32.9523 c 1.37005,0 2.47301,1.10295 2.47301,2.47301 v 5.75198 c 0,1.37005 -1.10296,2.47302 -2.47301,2.47302 h -32.9523 c -1.37004,0 -2.47301,-1.10297 -2.47301,-2.47302 v -5.75198 c 0,-1.37004 1.10297,-2.47301 2.47301,-2.47301 z"
         sodipodi:nodetypes="sssssssss" />
    </g>
    <g
       id="g125"
       transform="matrix(0.32327758,0,0,0.32327758,14.717465,132.09338)"
       style="fill:#ffffff;fill-opacity:1">
      <path
         id="path124"
         style="fill:#ffffff;fill-opacity:1;stroke-width:0.261726"
         d="m 64.974559,96.658173 h 27.66061 c 1.37005,0 2.47301,1.10296 2.47301,2.47301 v 5.751977 c 0,1.37005 -1.10296,2.47301 -2.47301,2.47301 h -27.66061 c -1.370046,0 -2.473009,-1.10296 -2.473009,-2.47301 v -5.751977 c 0,-1.37005 1.102963,-2.47301 2.473009,-2.47301 z"
         sodipodi:nodetypes="sssssssss" />
      <path
         id="path125"
         style="fill:#ffffff;fill-opacity:1;stroke-width:0.261726"
         d="m 102.13215,96.658173 h 59.41063 c 1.37005,0 2.47301,1.10296 2.47301,2.47301 v 5.751977 c 0,1.37005 -1.10296,2.47301 -2.47301,2.47301 h -59.41063 c -1.37004,0 -2.47301,-1.10296 -2.47301,-2.47301 v -5.751977 c 0,-1.37005 1.10297,-2.47301 2.47301,-2.47301 z"
         sodipodi:nodetypes="sssssssss" />
    </g>
    <g
       id="g146"
       transform="matrix(0.32327758,0,0,0.32327758,18.635723,133.79777)"
       style="fill:#ffffff;fill-opacity:1">
      <path
         id="path143"
         style="fill:#ffffff;fill-opacity:1;stroke-width:0.261726"
         d="m 134.73881,128.61802 h 59.41063 c 1.37005,0 2.47301,1.10296 2.47301,2.47301 v 5.75199 c 0,1.37004 -1.10296,2.47301 -2.47301,2.47301 h -59.41063 c -1.37004,0 -2.47301,-1.10297 -2.47301,-2.47301 v -5.75199 c 0,-1.37004 1.10297,-2.47301 2.47301,-2.47301 z"
         sodipodi:nodetypes="sssssssss" />
      <path
         id="path144"
         style="fill:#ffffff;fill-opacity:1;stroke-width:0.261726"
         d="m 86.141226,128.40818 h 6.493943 c 1.37005,0 2.47301,1.10296 2.47301,2.47301 v 5.75198 c 0,1.37005 -1.10296,2.47301 -2.47301,2.47301 h -6.493943 c -1.370046,0 -2.473009,-1.10296 -2.473009,-2.47301 v -5.75198 c 0,-1.37005 1.102963,-2.47301 2.473009,-2.47301 z"
         sodipodi:nodetypes="sssssssss" />
      <path
         id="path145"
         style="fill:#ffffff;fill-opacity:1;stroke-width:0.261726"
         d="m 102.13215,128.40818 h 22.36897 c 1.37005,0 2.47301,1.10296 2.47301,2.47301 v 5.75198 c 0,1.37005 -1.10296,2.47301 -2.47301,2.47301 h -22.36897 c -1.37004,0 -2.47301,-1.10296 -2.47301,-2.47301 v -5.75198 c 0,-1.37005 1.10297,-2.47301 2.47301,-2.47301 z"
         sodipodi:nodetypes="sssssssss" />
      <path
         id="path146"
         style="fill:#ffffff;fill-opacity:1;stroke-width:0.261726"
         d="m 204.38713,128.61802 h 32.9523 c 1.37005,0 2.47301,1.10295 2.47301,2.47301 v 5.75198 c 0,1.37005 -1.10296,2.47302 -2.47301,2.47302 h -32.9523 c -1.37004,0 -2.47301,-1.10297 -2.47301,-2.47302 v -5.75198 c 0,-1.37004 1.10297,-2.47301 2.47301,-2.47301 z"
         sodipodi:nodetypes="sssssssss" />
    </g>
    <g
       id="g132"
       transform="matrix(0.32327758,0,0,-0.32327758,13.006787,242.89184)"
       style="fill:#ffffff;fill-opacity:1">
      <path
         id="path128"
         style="fill:#ffffff;fill-opacity:1;stroke-width:0.261726"
         d="m 43.807878,52.206052 h 6.493954 c 1.37005,0 2.47301,1.102961 2.47301,2.473008 v 5.751984 c 0,1.370047 -1.10296,2.473008 -2.47301,2.473008 h -6.493954 c -1.370046,0 -2.473009,-1.10296 -2.473009,-2.473008 V 54.67906 c 0,-1.370047 1.102963,-2.473008 2.473009,-2.473008 z"
         sodipodi:nodetypes="sssssssss" />
      <path
         id="path129"
         style="fill:#ffffff;fill-opacity:1;stroke-width:0.261726"
         d="m 59.682879,52.206052 h 11.785619 c 1.37005,0 2.473007,1.102961 2.473007,2.473008 v 5.751984 c 0,1.370047 -1.102957,2.473008 -2.473007,2.473008 H 59.682879 c -1.370046,0 -2.473009,-1.10296 -2.473009,-2.473008 V 54.67906 c 0,-1.370047 1.102963,-2.473008 2.473009,-2.473008 z"
         sodipodi:nodetypes="sssssssss" />
      <path
         id="path130"
         style="fill:#ffffff;fill-opacity:1;stroke-width:0.261726"
         d="m 80.849547,52.206052 h 22.368943 c 1.37005,0 2.47301,1.102961 2.47301,2.473008 v 5.751984 c 0,1.370047 -1.10296,2.473008 -2.47301,2.473008 H 80.849547 c -1.370046,0 -2.473009,-1.10296 -2.473009,-2.473008 V 54.67906 c 0,-1.370047 1.102963,-2.473008 2.473009,-2.473008 z"
         sodipodi:nodetypes="sssssssss" />
      <path
         id="path131"
         style="fill:#ffffff;fill-opacity:1;stroke-width:0.261726"
         d="m 112.71547,52.206052 h 6.49396 c 1.37005,0 2.47301,1.102961 2.47301,2.473008 v 5.751984 c 0,1.370047 -1.10296,2.473008 -2.47301,2.473008 h -6.49396 c -1.37004,0 -2.47301,-1.102961 -2.47301,-2.473008 V 54.67906 c 0,-1.370047 1.10297,-2.473008 2.47301,-2.473008 z"
         sodipodi:nodetypes="sssssssss" />
      <path
         id="path132"
         style="fill:#ffffff;fill-opacity:1;stroke-width:0.261726"
         d="m 128.59048,52.206052 h 11.78562 c 1.37005,0 2.473,1.102961 2.473,2.473008 v 5.751984 c 0,1.370047 -1.10296,2.473008 -2.473,2.473008 h -11.78562 c -1.37005,0 -2.47301,-1.102961 -2.47301,-2.473008 V 54.67906 c 0,-1.370047 1.10296,-2.473008 2.47301,-2.473008 z"
         sodipodi:nodetypes="sssssssss" />
    </g>
    <g
       id="g136"
       transform="matrix(0.32327758,0,0,-0.32327758,13.648291,241.63414)"
       style="fill:#ffffff;fill-opacity:1">
      <path
         id="path133"
         style="fill:#ffffff;fill-opacity:1;stroke-width:0.261726"
         d="m 43.807878,67.767893 h 6.493954 c 1.37005,0 2.47301,1.102961 2.47301,2.473008 v 5.751984 c 0,1.370047 -1.10296,2.473008 -2.47301,2.473008 h -6.493954 c -1.370046,0 -2.473009,-1.10296 -2.473009,-2.473008 v -5.751984 c 0,-1.370047 1.102963,-2.473008 2.473009,-2.473008 z"
         sodipodi:nodetypes="sssssssss" />
      <path
         id="path134"
         style="fill:#ffffff;fill-opacity:1;stroke-width:0.261726"
         d="m 59.682879,67.767893 h 22.368952 c 1.37005,0 2.473007,1.102961 2.473007,2.473008 v 5.751984 c 0,1.370047 -1.102957,2.473008 -2.473007,2.473008 H 59.682879 c -1.370046,0 -2.473009,-1.10296 -2.473009,-2.473008 v -5.751984 c 0,-1.370047 1.102963,-2.473008 2.473009,-2.473008 z"
         sodipodi:nodetypes="sssssssss" />
      <path
         id="path135"
         style="fill:#ffffff;fill-opacity:1;stroke-width:0.261726"
         d="m 91.43288,67.767893 h 11.78561 c 1.37005,0 2.47301,1.102961 2.47301,2.473008 v 5.751984 c 0,1.370047 -1.10296,2.473008 -2.47301,2.473008 H 91.43288 c -1.370046,0 -2.473009,-1.10296 -2.473009,-2.473008 v -5.751984 c 0,-1.370047 1.102963,-2.473008 2.473009,-2.473008 z"
         sodipodi:nodetypes="sssssssss" />
      <path
         id="path136"
         style="fill:#ffffff;fill-opacity:1;stroke-width:0.261726"
         d="m 112.71547,67.767893 h 43.53563 c 1.37005,0 2.47301,1.102961 2.47301,2.473008 v 5.751984 c 0,1.370047 -1.10296,2.473008 -2.47301,2.473008 h -43.53563 c -1.37004,0 -2.47301,-1.102961 -2.47301,-2.473008 v -5.751984 c 0,-1.370047 1.10297,-2.473008 2.47301,-2.473008 z"
         sodipodi:nodetypes="sssssssss" />
    </g>
    <g
       id="g138"
       transform="matrix(0.32327758,0,0,0.32327758,13.220622,120.77322)"
       style="fill:#ffffff;fill-opacity:1">
      <path
         id="path137"
         style="fill:#ffffff;fill-opacity:1;stroke-width:0.261726"
         d="m 43.807879,287.79996 h 27.66061 c 1.37005,0 2.47301,-1.10296 2.47301,-2.47301 v -5.75198 c 0,-1.37005 -1.10296,-2.47301 -2.47301,-2.47301 h -27.66061 c -1.370046,0 -2.473009,1.10296 -2.473009,2.47301 v 5.75198 c 0,1.37005 1.102963,2.47301 2.473009,2.47301 z"
         sodipodi:nodetypes="sssssssss" />
      <path
         id="path138"
         style="fill:#ffffff;fill-opacity:1;stroke-width:0.261726"
         d="m 80.96547,287.79996 h 64.7023 c 1.37005,0 2.47301,-1.10296 2.47301,-2.47301 v -5.75198 c 0,-1.37005 -1.10296,-2.47301 -2.47301,-2.47301 h -64.7023 c -1.37004,0 -2.47301,1.10296 -2.47301,2.47301 v 5.75198 c 0,1.37005 1.10297,2.47301 2.47301,2.47301 z"
         sodipodi:nodetypes="sssssssss" />
    </g>
    <g
       id="g140"
       transform="matrix(0.32327758,0,0,0.32327758,16.428142,118.83936)"
       style="fill:#ffffff;fill-opacity:1">
      <path
         id="path139"
         style="fill:#ffffff;fill-opacity:1;stroke-width:0.261726"
         d="m 86.141227,257.66916 h 27.660613 c 1.37005,0 2.47302,-1.10296 2.47302,-2.47301 v -5.75198 c 0,-1.37005 -1.10297,-2.47301 -2.47302,-2.47301 H 86.141227 c -1.370046,0 -2.473009,1.10296 -2.473009,2.47301 v 5.75198 c 0,1.37005 1.102963,2.47301 2.473009,2.47301 z"
         sodipodi:nodetypes="sssssssss" />
      <path
         id="path140"
         style="fill:#ffffff;fill-opacity:1;stroke-width:0.261726"
         d="m 123.29883,257.66916 h 59.41063 c 1.37005,0 2.47301,-1.10296 2.47301,-2.47301 v -5.75198 c 0,-1.37005 -1.10296,-2.47301 -2.47301,-2.47301 h -59.41063 c -1.37004,0 -2.47301,1.10296 -2.47301,2.47301 v 5.75198 c 0,1.37005 1.10297,2.47301 2.47301,2.47301 z"
         sodipodi:nodetypes="sssssssss" />
    </g>
    <g
       id="g142"
       transform="matrix(0.32327758,0,0,0.32327758,17.069646,119.6211)"
       style="fill:#ffffff;fill-opacity:1">
      <path
         id="path141"
         style="fill:#ffffff;fill-opacity:1;stroke-width:0.261726"
         d="m 64.974559,273.54417 h 27.66061 c 1.37005,0 2.47301,-1.10296 2.47301,-2.47301 v -5.75198 c 0,-1.37005 -1.10296,-2.47301 -2.47301,-2.47301 h -27.66061 c -1.370046,0 -2.473009,1.10296 -2.473009,2.47301 v 5.75198 c 0,1.37005 1.102963,2.47301 2.473009,2.47301 z"
         sodipodi:nodetypes="sssssssss" />
      <path
         id="path142"
         style="fill:#ffffff;fill-opacity:1;stroke-width:0.261726"
         d="m 102.13215,273.54417 h 117.61896 c 1.37005,0 2.47301,-1.10296 2.47301,-2.47301 v -5.75198 c 0,-1.37005 -1.10296,-2.47301 -2.47301,-2.47301 H 102.13215 c -1.37004,0 -2.47301,1.10296 -2.47301,2.47301 v 5.75198 c 0,1.37005 1.10297,2.47301 2.47301,2.47301 z"
         sodipodi:nodetypes="sssssssss" />
    </g>
    <g
       id="g152"
       transform="matrix(-0.32327758,0,0,0.32327758,94.030523,117.35056)"
       style="fill:#ffffff;fill-opacity:1">
      <path
         id="path150"
         style="fill:#ffffff;fill-opacity:1;stroke-width:0.261726"
         d="m 161.54278,225.91918 h -27.66061 c -1.37005,0 -2.47301,-1.10296 -2.47301,-2.47301 v -5.75198 c 0,-1.37005 1.10296,-2.47301 2.47301,-2.47301 h 27.66061 c 1.37005,0 2.47301,1.10296 2.47301,2.47301 v 5.75198 c 0,1.37005 -1.10296,2.47301 -2.47301,2.47301 z"
         sodipodi:nodetypes="sssssssss" />
      <path
         id="path151"
         style="fill:#ffffff;fill-opacity:1;stroke-width:0.261726"
         d="M 124.38519,225.91918 H 64.97456 c -1.37005,0 -2.47301,-1.10296 -2.47301,-2.47301 v -5.75198 c 0,-1.37005 1.10296,-2.47301 2.47301,-2.47301 h 59.41063 c 1.37004,0 2.47301,1.10296 2.47301,2.47301 v 5.75198 c 0,1.37005 -1.10297,2.47301 -2.47301,2.47301 z"
         sodipodi:nodetypes="sssssssss" />
      <path
         id="path152"
         style="fill:#ffffff;fill-opacity:1;stroke-width:0.261726"
         d="m 171.78047,225.91918 h 6.49394 c 1.37005,0 2.47301,-1.10296 2.47301,-2.47301 v -5.75198 c 0,-1.37005 -1.10296,-2.47301 -2.47301,-2.47301 h -6.49394 c -1.37005,0 -2.47301,1.10296 -2.47301,2.47301 v 5.75198 c 0,1.37005 1.10296,2.47301 2.47301,2.47301 z"
         sodipodi:nodetypes="sssssssss" />
    </g>
    <g
       id="g156"
       transform="matrix(0.32327758,0,0,0.32327758,19.918731,118.16623)"
       style="fill:#ffffff;fill-opacity:1">
      <path
         id="path153"
         style="fill:#ffffff;fill-opacity:1;stroke-width:0.261726"
         d="m 134.73881,241.58432 h 59.41063 c 1.37005,0 2.47301,-1.10296 2.47301,-2.47301 v -5.75199 c 0,-1.37004 -1.10296,-2.47301 -2.47301,-2.47301 h -59.41063 c -1.37004,0 -2.47301,1.10297 -2.47301,2.47301 v 5.75199 c 0,1.37004 1.10297,2.47301 2.47301,2.47301 z"
         sodipodi:nodetypes="sssssssss" />
      <path
         id="path154"
         style="fill:#ffffff;fill-opacity:1;stroke-width:0.261726"
         d="m 86.141226,241.79419 h 6.493943 c 1.37005,0 2.47301,-1.10296 2.47301,-2.47301 v -5.75198 c 0,-1.37005 -1.10296,-2.47301 -2.47301,-2.47301 h -6.493943 c -1.370046,0 -2.473009,1.10296 -2.473009,2.47301 v 5.75198 c 0,1.37005 1.102963,2.47301 2.473009,2.47301 z"
         sodipodi:nodetypes="sssssssss" />
      <path
         id="path155"
         style="fill:#ffffff;fill-opacity:1;stroke-width:0.261726"
         d="m 102.13215,241.79419 h 22.36897 c 1.37005,0 2.47301,-1.10296 2.47301,-2.47301 v -5.75198 c 0,-1.37005 -1.10296,-2.47301 -2.47301,-2.47301 h -22.36897 c -1.37004,0 -2.47301,1.10296 -2.47301,2.47301 v 5.75198 c 0,1.37005 1.10297,2.47301 2.47301,2.47301 z"
         sodipodi:nodetypes="sssssssss" />
      <path
         id="path156"
         style="fill:#ffffff;fill-opacity:1;stroke-width:0.261726"
         d="m 204.38713,241.58431 h 64.7023 c 1.37005,0 2.47301,-1.10296 2.47301,-2.473 v -5.75199 c 0,-1.37004 -1.10296,-2.473 -2.47301,-2.473 h -64.7023 c -1.37004,0 -2.47301,1.10296 -2.47301,2.473 v 5.75199 c 0,1.37004 1.10297,2.473 2.47301,2.473 z"
         sodipodi:nodetypes="sssssssss" />
    </g>
  </g>
</svg>
