<?xml version="1.0" encoding="UTF-8"?>
<svg width="97.46mm" height="228.67mm" version="1.1" viewBox="0 0 97.46 228.67" xmlns="http://www.w3.org/2000/svg">
<g transform="translate(-10.248 -9.0599)" fill="#fff">
<path d="m11.057 9.0599h5.6743c0.44774 0 0.80819 0.36045 0.80819 0.80819v1.8798c0 0.44774-0.36046 0.8082-0.80819 0.8082h-5.6743c-0.44774 0-0.80819-0.36046-0.80819-0.8082v-1.8798c0-0.44774 0.36045-0.80819 0.80819-0.80819z" stroke-width=".085534"/>
<path d="m11.057 14.974h5.6743c0.44774 0 0.80819 0.36046 0.80819 0.80819v1.8798c0 0.44774-0.36046 0.80819-0.80819 0.80819h-5.6743c-0.44774 0-0.80819-0.36046-0.80819-0.80819v-1.8798c0-0.44774 0.36045-0.80819 0.80819-0.80819z" stroke-width=".085534"/>
<path d="m11.057 20.734h5.6743c0.44774 0 0.80819 0.36046 0.80819 0.80819v1.8798c0 0.44774-0.36046 0.8082-0.80819 0.8082h-5.6743c-0.44774 0-0.80819-0.36046-0.80819-0.8082v-1.8798c0-0.44774 0.36045-0.80819 0.80819-0.80819z" stroke-width=".085534"/>
<path d="m11.057 26.648h5.6743c0.44774 0 0.80819 0.36046 0.80819 0.8082v1.8798c0 0.44774-0.36046 0.80819-0.80819 0.80819h-5.6743c-0.44774 0-0.80819-0.36045-0.80819-0.80819v-1.8798c0-0.44774 0.36045-0.8082 0.80819-0.8082z" stroke-width=".085534"/>
<path d="m11.057 32.937h5.6743c0.44774 0 0.80819 0.36045 0.80819 0.80819v1.8798c0 0.44774-0.36046 0.8082-0.80819 0.8082h-5.6743c-0.44774 0-0.80819-0.36046-0.80819-0.8082v-1.8798c0-0.44774 0.36045-0.80819 0.80819-0.80819z" stroke-width=".085534"/>
<path d="m11.057 38.85h5.6743c0.44774 0 0.80819 0.36046 0.80819 0.80819v1.8798c0 0.44774-0.36046 0.80819-0.80819 0.80819h-5.6743c-0.44774 0-0.80819-0.36045-0.80819-0.80819v-1.8798c0-0.44774 0.36045-0.80819 0.80819-0.80819z" stroke-width=".085534"/>
<path d="m11.057 44.611h5.6743c0.44774 0 0.80819 0.36046 0.80819 0.8082v1.8798c0 0.44774-0.36046 0.80819-0.80819 0.80819h-5.6743c-0.44774 0-0.80819-0.36046-0.80819-0.80819v-1.8798c0-0.44774 0.36045-0.8082 0.80819-0.8082z" stroke-width=".085534"/>
<path d="m11.057 50.525h5.6743c0.44774 0 0.80819 0.36046 0.80819 0.80819v1.8798c0 0.44774-0.36046 0.80819-0.80819 0.80819h-5.6743c-0.44774 0-0.80819-0.36045-0.80819-0.80819v-1.8798c0-0.44774 0.36045-0.80819 0.80819-0.80819z" stroke-width=".085534"/>
<path d="m11.057 56.613h5.6743c0.44774 0 0.80819 0.36045 0.80819 0.80819v1.8798c0 0.44774-0.36046 0.80819-0.80819 0.80819h-5.6743c-0.44774 0-0.80819-0.36046-0.80819-0.80819v-1.8798c0-0.44774 0.36045-0.80819 0.80819-0.80819z" stroke-width=".085534"/>
<path d="m11.057 62.527h5.6743c0.44774 0 0.80819 0.36046 0.80819 0.8082v1.8798c0 0.44774-0.36046 0.8082-0.80819 0.8082h-5.6743c-0.44774 0-0.80819-0.36046-0.80819-0.8082v-1.8798c0-0.44774 0.36045-0.8082 0.80819-0.8082z" stroke-width=".085534"/>
<path d="m11.057 68.288h5.6743c0.44774 0 0.80819 0.36046 0.80819 0.8082v1.8798c0 0.44774-0.36046 0.8082-0.80819 0.8082h-5.6743c-0.44774 0-0.80819-0.36046-0.80819-0.8082v-1.8798c0-0.44774 0.36045-0.8082 0.80819-0.8082z" stroke-width=".085534"/>
<path d="m11.057 74.202h5.6743c0.44774 0 0.80819 0.36046 0.80819 0.8082v1.8798c0 0.44774-0.36046 0.80819-0.80819 0.80819h-5.6743c-0.44774 0-0.80819-0.36045-0.80819-0.80819v-1.8798c0-0.44774 0.36045-0.8082 0.80819-0.8082z" stroke-width=".085534"/>
<path d="m11.057 80.49h5.6743c0.44774 0 0.80819 0.36046 0.80819 0.80819v1.8798c0 0.44774-0.36046 0.8082-0.80819 0.8082h-5.6743c-0.44774 0-0.80819-0.36046-0.80819-0.8082v-1.8798c0-0.44774 0.36045-0.80819 0.80819-0.80819z" stroke-width=".085534"/>
<path d="m11.057 86.404h5.6743c0.44774 0 0.80819 0.36046 0.80819 0.80819v1.8798c0 0.44774-0.36046 0.80819-0.80819 0.80819h-5.6743c-0.44774 0-0.80819-0.36046-0.80819-0.80819v-1.8798c0-0.44774 0.36045-0.80819 0.80819-0.80819z" stroke-width=".085534"/>
<path d="m11.057 92.165h5.6743c0.44774 0 0.80819 0.36046 0.80819 0.80819v1.8798c0 0.44774-0.36046 0.80819-0.80819 0.80819h-5.6743c-0.44774 0-0.80819-0.36045-0.80819-0.80819v-1.8798c0-0.44774 0.36045-0.80819 0.80819-0.80819z" stroke-width=".085534"/>
<path d="m11.057 98.078h5.6743c0.44774 0 0.80819 0.36046 0.80819 0.80819v1.8798c0 0.44773-0.36046 0.8082-0.80819 0.8082h-5.6743c-0.44774 0-0.80819-0.36047-0.80819-0.8082v-1.8798c0-0.44774 0.36045-0.80819 0.80819-0.80819z" stroke-width=".085534"/>
<path d="m11.057 103.92h5.6743c0.44774 0 0.80819 0.36046 0.80819 0.80819v1.8798c0 0.44773-0.36046 0.80819-0.80819 0.80819h-5.6743c-0.44774 0-0.80819-0.36046-0.80819-0.80819v-1.8798c0-0.44773 0.36045-0.80819 0.80819-0.80819z" stroke-width=".085534"/>
<path d="m11.057 109.83h5.6743c0.44774 0 0.80819 0.36045 0.80819 0.80819v1.8798c0 0.44773-0.36046 0.80819-0.80819 0.80819h-5.6743c-0.44774 0-0.80819-0.36046-0.80819-0.80819v-1.8798c0-0.44774 0.36045-0.80819 0.80819-0.80819z" stroke-width=".085534"/>
<path d="m11.057 115.59h5.6743c0.44774 0 0.80819 0.36045 0.80819 0.8082v1.8798c0 0.44773-0.36046 0.8082-0.80819 0.8082h-5.6743c-0.44774 0-0.80819-0.36047-0.80819-0.8082v-1.8798c0-0.44775 0.36045-0.8082 0.80819-0.8082z" stroke-width=".085534"/>
<path d="m11.057 121.51h5.6743c0.44774 0 0.80819 0.36045 0.80819 0.80819v1.8798c0 0.44772-0.36046 0.80819-0.80819 0.80819h-5.6743c-0.44774 0-0.80819-0.36047-0.80819-0.80819v-1.8798c0-0.44774 0.36045-0.80819 0.80819-0.80819z" stroke-width=".085534"/>
<path d="m11.057 127.79h5.6743c0.44774 0 0.80819 0.36046 0.80819 0.80819v1.8798c0 0.44773-0.36046 0.80819-0.80819 0.80819h-5.6743c-0.44774 0-0.80819-0.36046-0.80819-0.80819v-1.8798c0-0.44773 0.36045-0.80819 0.80819-0.80819z" stroke-width=".085534"/>
<path d="m11.057 133.71h5.6743c0.44774 0 0.80819 0.36045 0.80819 0.8082v1.8798c0 0.44774-0.36046 0.8082-0.80819 0.8082h-5.6743c-0.44774 0-0.80819-0.36046-0.80819-0.8082v-1.8798c0-0.44775 0.36045-0.8082 0.80819-0.8082z" stroke-width=".085534"/>
<path d="m11.057 139.47h5.6743c0.44774 0 0.80819 0.36047 0.80819 0.80819v1.8798c0 0.44773-0.36046 0.80819-0.80819 0.80819h-5.6743c-0.44774 0-0.80819-0.36046-0.80819-0.80819v-1.8798c0-0.44772 0.36045-0.80819 0.80819-0.80819z" stroke-width=".085534"/>
<path d="m11.057 145.38h5.6743c0.44774 0 0.80819 0.36046 0.80819 0.8082v1.8798c0 0.44773-0.36046 0.8082-0.80819 0.8082h-5.6743c-0.44774 0-0.80819-0.36047-0.80819-0.8082v-1.8798c0-0.44774 0.36045-0.8082 0.80819-0.8082z" stroke-width=".085534"/>
<path d="m11.057 151.38h5.6743c0.44774 0 0.80819 0.36045 0.80819 0.8082v1.8798c0 0.44773-0.36045 0.8082-0.80819 0.8082h-5.6743c-0.44774 0-0.80819-0.36047-0.80819-0.8082v-1.8798c0-0.44775 0.36046-0.8082 0.80819-0.8082z" stroke-width=".085534"/>
<path d="m11.057 157.14h5.6743c0.44774 0 0.80819 0.36046 0.80819 0.80819v1.8798c0 0.44774-0.36045 0.8082-0.80819 0.8082h-5.6743c-0.44774 0-0.80819-0.36046-0.80819-0.8082v-1.8798c0-0.44773 0.36046-0.80819 0.80819-0.80819z" stroke-width=".085534"/>
<path d="m11.057 163.05h5.6743c0.44774 0 0.80819 0.36046 0.80819 0.8082v1.8798c0 0.44773-0.36045 0.8082-0.80819 0.8082h-5.6743c-0.44774 0-0.80819-0.36047-0.80819-0.8082v-1.8798c0-0.44774 0.36046-0.8082 0.80819-0.8082z" stroke-width=".085534"/>
<path d="m11.057 169.34h5.6743c0.44774 0 0.80819 0.36045 0.80819 0.80819v1.8798c0 0.44773-0.36045 0.80819-0.80819 0.80819h-5.6743c-0.44774 0-0.80819-0.36046-0.80819-0.80819v-1.8798c0-0.44774 0.36045-0.80819 0.80819-0.80819z" stroke-width=".085534"/>
<path d="m11.057 175.26h5.6743c0.44774 0 0.80819 0.36047 0.80819 0.8082v1.8798c0 0.44773-0.36045 0.80819-0.80819 0.80819h-5.6743c-0.44774 0-0.80819-0.36046-0.80819-0.80819v-1.8798c0-0.44773 0.36045-0.8082 0.80819-0.8082z" stroke-width=".085534"/>
<path d="m11.057 181.02h5.6743c0.44774 0 0.80819 0.36046 0.80819 0.80819v1.8798c0 0.44773-0.36045 0.80819-0.80819 0.80819h-5.6743c-0.44774 0-0.80819-0.36046-0.80819-0.80819v-1.8798c0-0.44773 0.36046-0.80819 0.80819-0.80819z" stroke-width=".085534"/>
<path d="m11.057 186.93h5.6743c0.44774 0 0.80819 0.36047 0.80819 0.8082v1.8798c0 0.44774-0.36045 0.80819-0.80819 0.80819h-5.6743c-0.44774 0-0.80819-0.36045-0.80819-0.80819v-1.8798c0-0.44773 0.36046-0.8082 0.80819-0.8082z" stroke-width=".085534"/>
<path d="m11.057 192.77h5.6743c0.44774 0 0.80819 0.36045 0.80819 0.80819v1.8798c0 0.44773-0.36045 0.80819-0.80819 0.80819h-5.6743c-0.44774 0-0.80819-0.36046-0.80819-0.80819v-1.8798c0-0.44774 0.36046-0.80819 0.80819-0.80819z" stroke-width=".085534"/>
<path d="m11.057 198.68h5.6743c0.44774 0 0.80819 0.36047 0.80819 0.8082v1.8798c0 0.44774-0.36045 0.8082-0.80819 0.8082h-5.6743c-0.44774 0-0.80819-0.36046-0.80819-0.8082v-1.8798c0-0.44773 0.36046-0.8082 0.80819-0.8082z" stroke-width=".085534"/>
<path d="m11.057 204.45h5.6743c0.44774 0 0.80819 0.36046 0.80819 0.80819v1.8798c0 0.44773-0.36045 0.80819-0.80819 0.80819h-5.6743c-0.44774 0-0.80819-0.36046-0.80819-0.80819v-1.8798c0-0.44773 0.36045-0.80819 0.80819-0.80819z" stroke-width=".085534"/>
<path d="m11.057 210.36h5.6743c0.44774 0 0.80819 0.36047 0.80819 0.8082v1.8798c0 0.44774-0.36045 0.8082-0.80819 0.8082h-5.6743c-0.44774 0-0.80819-0.36046-0.80819-0.8082v-1.8798c0-0.44773 0.36045-0.8082 0.80819-0.8082z" stroke-width=".085534"/>
<path d="m11.057 216.65h5.6743c0.44774 0 0.80819 0.36045 0.80819 0.80819v1.8798c0 0.44773-0.36045 0.80819-0.80819 0.80819h-5.6743c-0.44774 0-0.80819-0.36046-0.80819-0.80819v-1.8798c0-0.44774 0.36046-0.80819 0.80819-0.80819z" stroke-width=".085534"/>
<path d="m11.057 222.56h5.6743c0.44774 0 0.80819 0.36046 0.80819 0.80819v1.8798c0 0.44775-0.36045 0.80819-0.80819 0.80819h-5.6743c-0.44774 0-0.80819-0.36044-0.80819-0.80819v-1.8798c0-0.44773 0.36046-0.80819 0.80819-0.80819z" stroke-width=".085534"/>
<path d="m11.057 228.32h5.6743c0.44774 0 0.80819 0.36046 0.80819 0.80819v1.8798c0 0.44773-0.36045 0.80819-0.80819 0.80819h-5.6743c-0.44774 0-0.80819-0.36046-0.80819-0.80819v-1.8798c0-0.44773 0.36046-0.80819 0.80819-0.80819z" stroke-width=".085534"/>
<path d="m11.057 234.24h5.6743c0.44774 0 0.80819 0.36046 0.80819 0.80819v1.8798c0 0.44774-0.36045 0.80819-0.80819 0.80819h-5.6743c-0.44774 0-0.80819-0.36045-0.80819-0.80819v-1.8798c0-0.44773 0.36046-0.80819 0.80819-0.80819z" stroke-width=".085534"/>
<g transform="matrix(.32328 0 0 .32328 13.168 6.2723)" stroke-width=".26458">
<path d="m43.587 8.6228h44.011c1.385 0 2.5 1.115 2.5 2.5v5.8148c0 1.385-1.115 2.5-2.5 2.5h-44.011c-1.385 0-2.5-1.115-2.5-2.5v-5.8148c0-1.385 1.115-2.5 2.5-2.5z"/>
<path d="m98.091 8.6228h44.011c1.385 0 2.5 1.115 2.5 2.5v5.8148c0 1.385-1.115 2.5-2.5 2.5h-44.011c-1.385 0-2.5-1.115-2.5-2.5v-5.8148c0-1.385 1.115-2.5 2.5-2.5z"/>
</g>
<g transform="matrix(-.32328 0 0 .32328 73.6 7.455)" stroke-width=".26458">
<path d="m44.833 23.257h54.594c1.385 0 2.5 1.115 2.5 2.5v5.8148c0 1.385-1.115 2.5-2.5 2.5h-54.594c-1.385 0-2.5-1.115-2.5-2.5v-5.8148c0-1.385 1.115-2.5 2.5-2.5z"/>
<path d="m109.92 23.257h33.427c1.385 0 2.5 1.115 2.5 2.5v5.8148c0 1.385-1.115 2.5-2.5 2.5h-33.427c-1.385 0-2.5-1.115-2.5-2.5v-5.8148c0-1.385 1.115-2.5 2.5-2.5z"/>
</g>
<g transform="matrix(.32328 0 0 .32328 13.007 9.7899)" stroke-width=".26173">
<path d="m43.808 52.206h6.494c1.37 0 2.473 1.103 2.473 2.473v5.752c0 1.37-1.103 2.473-2.473 2.473h-6.494c-1.37 0-2.473-1.103-2.473-2.473v-5.752c0-1.37 1.103-2.473 2.473-2.473z"/>
<path d="m59.683 52.206h11.786c1.37 0 2.473 1.103 2.473 2.473v5.752c0 1.37-1.103 2.473-2.473 2.473h-11.786c-1.37 0-2.473-1.103-2.473-2.473v-5.752c0-1.37 1.103-2.473 2.473-2.473z"/>
<path d="m80.85 52.206h22.369c1.37 0 2.473 1.103 2.473 2.473v5.752c0 1.37-1.103 2.473-2.473 2.473h-22.369c-1.37 0-2.473-1.103-2.473-2.473v-5.752c0-1.37 1.103-2.473 2.473-2.473z"/>
<path d="m112.72 52.206h6.494c1.37 0 2.473 1.103 2.473 2.473v5.752c0 1.37-1.103 2.473-2.473 2.473h-6.494c-1.37 0-2.473-1.103-2.473-2.473v-5.752c0-1.37 1.103-2.473 2.473-2.473z"/>
<path d="m128.59 52.206h11.786c1.37 0 2.473 1.103 2.473 2.473v5.752c0 1.37-1.103 2.473-2.473 2.473h-11.786c-1.37 0-2.473-1.103-2.473-2.473v-5.752c0-1.37 1.103-2.473 2.473-2.473z"/>
</g>
<g transform="matrix(.32328 0 0 .32328 13.648 11.048)" stroke-width=".26173">
<path d="m43.808 67.768h6.494c1.37 0 2.473 1.103 2.473 2.473v5.752c0 1.37-1.103 2.473-2.473 2.473h-6.494c-1.37 0-2.473-1.103-2.473-2.473v-5.752c0-1.37 1.103-2.473 2.473-2.473z"/>
<path d="m59.683 67.768h22.369c1.37 0 2.473 1.103 2.473 2.473v5.752c0 1.37-1.103 2.473-2.473 2.473h-22.369c-1.37 0-2.473-1.103-2.473-2.473v-5.752c0-1.37 1.103-2.473 2.473-2.473z"/>
<path d="m91.433 67.768h11.786c1.37 0 2.473 1.103 2.473 2.473v5.752c0 1.37-1.103 2.473-2.473 2.473h-11.786c-1.37 0-2.473-1.103-2.473-2.473v-5.752c0-1.37 1.103-2.473 2.473-2.473z"/>
<path d="m112.72 67.768h43.536c1.37 0 2.473 1.103 2.473 2.473v5.752c0 1.37-1.103 2.473-2.473 2.473h-43.536c-1.37 0-2.473-1.103-2.473-2.473v-5.752c0-1.37 1.103-2.473 2.473-2.473z"/>
</g>
<g transform="matrix(.32328 0 0 .32328 13.221 12.23)" stroke-width=".26173">
<path d="m43.808 82.402h27.661c1.37 0 2.473 1.103 2.473 2.473v5.752c0 1.37-1.103 2.473-2.473 2.473h-27.661c-1.37 0-2.473-1.103-2.473-2.473v-5.752c0-1.37 1.103-2.473 2.473-2.473z"/>
<path d="m80.965 82.402h64.702c1.37 0 2.473 1.103 2.473 2.473v5.752c0 1.37-1.103 2.473-2.473 2.473h-64.702c-1.37 0-2.473-1.103-2.473-2.473v-5.752c0-1.37 1.103-2.473 2.473-2.473z"/>
</g>
<g transform="matrix(.32328 0 0 .32328 14.717 15.903)" stroke-width=".26173">
<path d="m161.54 144.28h-27.661c-1.37 0-2.473 1.103-2.473 2.473v5.752c0 1.37 1.103 2.473 2.473 2.473h27.661c1.37 0 2.473-1.103 2.473-2.473v-5.752c0-1.37-1.103-2.473-2.473-2.473z"/>
<path d="m124.39 144.28h-59.411c-1.37 0-2.473 1.103-2.473 2.473v5.752c0 1.37 1.103 2.473 2.473 2.473h59.411c1.37 0 2.473-1.103 2.473-2.473v-5.752c0-1.37-1.103-2.473-2.473-2.473z"/>
</g>
<g transform="matrix(.32328 0 0 .32328 16.428 14.164)" stroke-width=".26173">
<path d="m64.975 112.53h27.661c1.37 0 2.473 1.103 2.473 2.473v5.752c0 1.37-1.103 2.473-2.473 2.473h-27.661c-1.37 0-2.473-1.103-2.473-2.473v-5.752c0-1.37 1.103-2.473 2.473-2.473z"/>
<path d="m144.47 112.53h59.411c1.37 0 2.473 1.103 2.473 2.473v5.752c0 1.37-1.103 2.473-2.473 2.473h-59.411c-1.37 0-2.473-1.103-2.473-2.473v-5.752c0-1.37 1.103-2.473 2.473-2.473z"/>
<path d="m102.87 112.53h32.952c1.37 0 2.473 1.103 2.473 2.473v5.752c0 1.37-1.103 2.473-2.473 2.473h-32.952c-1.37 0-2.473-1.103-2.473-2.473v-5.752c0-1.37 1.103-2.473 2.473-2.473z"/>
</g>
<g transform="matrix(.32328 0 0 .32328 14.717 13.383)" stroke-width=".26173">
<path d="m64.975 96.658h27.661c1.37 0 2.473 1.103 2.473 2.473v5.752c0 1.37-1.103 2.473-2.473 2.473h-27.661c-1.37 0-2.473-1.103-2.473-2.473v-5.752c0-1.37 1.103-2.473 2.473-2.473z"/>
<path d="m102.13 96.658h59.411c1.37 0 2.473 1.103 2.473 2.473v5.752c0 1.37-1.103 2.473-2.473 2.473h-59.411c-1.37 0-2.473-1.103-2.473-2.473v-5.752c0-1.37 1.103-2.473 2.473-2.473z"/>
</g>
<g transform="matrix(.32328 0 0 .32328 13.221 16.863)" stroke-width=".26173">
<path d="m43.808 159.13h27.661c1.37 0 2.473 1.103 2.473 2.473v5.752c0 1.37-1.103 2.473-2.473 2.473h-27.661c-1.37 0-2.473-1.103-2.473-2.473v-5.752c0-1.37 1.103-2.473 2.473-2.473z"/>
<path d="m80.965 159.13h64.702c1.37 0 2.473 1.103 2.473 2.473v5.752c0 1.37-1.103 2.473-2.473 2.473h-64.702c-1.37 0-2.473-1.103-2.473-2.473v-5.752c0-1.37 1.103-2.473 2.473-2.473z"/>
</g>
<g transform="matrix(.32328 0 0 -.32328 13.007 148.15)" stroke-width=".26173">
<path d="m43.808 52.206h6.494c1.37 0 2.473 1.103 2.473 2.473v5.752c0 1.37-1.103 2.473-2.473 2.473h-6.494c-1.37 0-2.473-1.103-2.473-2.473v-5.752c0-1.37 1.103-2.473 2.473-2.473z"/>
<path d="m59.683 52.206h11.786c1.37 0 2.473 1.103 2.473 2.473v5.752c0 1.37-1.103 2.473-2.473 2.473h-11.786c-1.37 0-2.473-1.103-2.473-2.473v-5.752c0-1.37 1.103-2.473 2.473-2.473z"/>
<path d="m80.85 52.206h22.369c1.37 0 2.473 1.103 2.473 2.473v5.752c0 1.37-1.103 2.473-2.473 2.473h-22.369c-1.37 0-2.473-1.103-2.473-2.473v-5.752c0-1.37 1.103-2.473 2.473-2.473z"/>
<path d="m112.72 52.206h6.494c1.37 0 2.473 1.103 2.473 2.473v5.752c0 1.37-1.103 2.473-2.473 2.473h-6.494c-1.37 0-2.473-1.103-2.473-2.473v-5.752c0-1.37 1.103-2.473 2.473-2.473z"/>
<path d="m128.59 52.206h11.786c1.37 0 2.473 1.103 2.473 2.473v5.752c0 1.37-1.103 2.473-2.473 2.473h-11.786c-1.37 0-2.473-1.103-2.473-2.473v-5.752c0-1.37 1.103-2.473 2.473-2.473z"/>
</g>
<g transform="matrix(.32328 0 0 -.32328 13.648 146.89)" stroke-width=".26173">
<path d="m43.808 67.768h6.494c1.37 0 2.473 1.103 2.473 2.473v5.752c0 1.37-1.103 2.473-2.473 2.473h-6.494c-1.37 0-2.473-1.103-2.473-2.473v-5.752c0-1.37 1.103-2.473 2.473-2.473z"/>
<path d="m59.683 67.768h22.369c1.37 0 2.473 1.103 2.473 2.473v5.752c0 1.37-1.103 2.473-2.473 2.473h-22.369c-1.37 0-2.473-1.103-2.473-2.473v-5.752c0-1.37 1.103-2.473 2.473-2.473z"/>
<path d="m91.433 67.768h11.786c1.37 0 2.473 1.103 2.473 2.473v5.752c0 1.37-1.103 2.473-2.473 2.473h-11.786c-1.37 0-2.473-1.103-2.473-2.473v-5.752c0-1.37 1.103-2.473 2.473-2.473z"/>
<path d="m112.72 67.768h43.536c1.37 0 2.473 1.103 2.473 2.473v5.752c0 1.37-1.103 2.473-2.473 2.473h-43.536c-1.37 0-2.473-1.103-2.473-2.473v-5.752c0-1.37 1.103-2.473 2.473-2.473z"/>
</g>
<g transform="matrix(.32328 0 0 .32328 13.221 26.03)" stroke-width=".26173">
<path d="m43.808 287.8h27.661c1.37 0 2.473-1.103 2.473-2.473v-5.752c0-1.37-1.103-2.473-2.473-2.473h-27.661c-1.37 0-2.473 1.103-2.473 2.473v5.752c0 1.37 1.103 2.473 2.473 2.473z"/>
<path d="m80.965 287.8h64.702c1.37 0 2.473-1.103 2.473-2.473v-5.752c0-1.37-1.103-2.473-2.473-2.473h-64.702c-1.37 0-2.473 1.103-2.473 2.473v5.752c0 1.37 1.103 2.473 2.473 2.473z"/>
</g>
<g transform="matrix(.32328 0 0 .32328 16.428 24.096)" stroke-width=".26173">
<path d="m86.141 257.67h27.661c1.37 0 2.473-1.103 2.473-2.473v-5.752c0-1.37-1.103-2.473-2.473-2.473h-27.661c-1.37 0-2.473 1.103-2.473 2.473v5.752c0 1.37 1.103 2.473 2.473 2.473z"/>
<path d="m123.3 257.67h59.411c1.37 0 2.473-1.103 2.473-2.473v-5.752c0-1.37-1.103-2.473-2.473-2.473h-59.411c-1.37 0-2.473 1.103-2.473 2.473v5.752c0 1.37 1.103 2.473 2.473 2.473z"/>
</g>
<g transform="matrix(.32328 0 0 .32328 17.07 24.878)" stroke-width=".26173">
<path d="m64.975 273.54h27.661c1.37 0 2.473-1.103 2.473-2.473v-5.752c0-1.37-1.103-2.473-2.473-2.473h-27.661c-1.37 0-2.473 1.103-2.473 2.473v5.752c0 1.37 1.103 2.473 2.473 2.473z"/>
<path d="m102.13 273.54h117.62c1.37 0 2.473-1.103 2.473-2.473v-5.752c0-1.37-1.103-2.473-2.473-2.473h-117.62c-1.37 0-2.473 1.103-2.473 2.473v5.752c0 1.37 1.103 2.473 2.473 2.473z"/>
</g>
<g transform="matrix(.32328 0 0 .32328 18.636 15.087)" stroke-width=".26173">
<path d="m134.74 128.62h59.411c1.37 0 2.473 1.103 2.473 2.473v5.752c0 1.37-1.103 2.473-2.473 2.473h-59.411c-1.37 0-2.473-1.103-2.473-2.473v-5.752c0-1.37 1.103-2.473 2.473-2.473z"/>
<path d="m86.141 128.41h6.4939c1.37 0 2.473 1.103 2.473 2.473v5.752c0 1.37-1.103 2.473-2.473 2.473h-6.4939c-1.37 0-2.473-1.103-2.473-2.473v-5.752c0-1.37 1.103-2.473 2.473-2.473z"/>
<path d="m102.13 128.41h22.369c1.37 0 2.473 1.103 2.473 2.473v5.752c0 1.37-1.103 2.473-2.473 2.473h-22.369c-1.37 0-2.473-1.103-2.473-2.473v-5.752c0-1.37 1.103-2.473 2.473-2.473z"/>
<path d="m204.39 128.62h32.952c1.37 0 2.473 1.103 2.473 2.473v5.752c0 1.37-1.103 2.473-2.473 2.473h-32.952c-1.37 0-2.473-1.103-2.473-2.473v-5.752c0-1.37 1.103-2.473 2.473-2.473z"/>
</g>
<g transform="matrix(.32328 0 0 .32328 16.035 21.647)" stroke-width=".26173">
<path d="m43.808 211.07h27.661c1.37 0 2.473-1.103 2.473-2.473v-5.752c0-1.37-1.103-2.473-2.473-2.473h-27.661c-1.37 0-2.473 1.103-2.473 2.473v5.752c0 1.37 1.103 2.473 2.473 2.473z"/>
<path d="m80.965 211.07h64.702c1.37 0 2.473-1.103 2.473-2.473v-5.752c0-1.37-1.103-2.473-2.473-2.473h-64.702c-1.37 0-2.473 1.103-2.473 2.473v5.752c0 1.37 1.103 2.473 2.473 2.473z"/>
<path d="m155.91 211.07h59.411c1.37 0 2.473-1.103 2.473-2.473v-5.752c0-1.37-1.103-2.473-2.473-2.473h-59.411c-1.37 0-2.473 1.103-2.473 2.473v5.752c0 1.37 1.103 2.473 2.473 2.473z"/>
</g>
<g transform="matrix(.32328 0 0 .32328 15.394 22.607)" stroke-width=".26173">
<path d="m161.54 225.92h-27.661c-1.37 0-2.473-1.103-2.473-2.473v-5.752c0-1.37 1.103-2.473 2.473-2.473h27.661c1.37 0 2.473 1.103 2.473 2.473v5.752c0 1.37-1.103 2.473-2.473 2.473z"/>
<path d="m124.39 225.92h-59.411c-1.37 0-2.473-1.103-2.473-2.473v-5.752c0-1.37 1.103-2.473 2.473-2.473h59.411c1.37 0 2.473 1.103 2.473 2.473v5.752c0 1.37-1.103 2.473-2.473 2.473z"/>
<path d="m171.78 225.92h6.4939c1.37 0 2.473-1.103 2.473-2.473v-5.752c0-1.37-1.103-2.473-2.473-2.473h-6.4939c-1.37 0-2.473 1.103-2.473 2.473v5.752c0 1.37 1.103 2.473 2.473 2.473z"/>
</g>
<g transform="matrix(.32328 0 0 .32328 19.919 23.423)" stroke-width=".26173">
<path d="m134.74 241.58h59.411c1.37 0 2.473-1.103 2.473-2.473v-5.752c0-1.37-1.103-2.473-2.473-2.473h-59.411c-1.37 0-2.473 1.103-2.473 2.473v5.752c0 1.37 1.103 2.473 2.473 2.473z"/>
<path d="m86.141 241.79h6.4939c1.37 0 2.473-1.103 2.473-2.473v-5.752c0-1.37-1.103-2.473-2.473-2.473h-6.4939c-1.37 0-2.473 1.103-2.473 2.473v5.752c0 1.37 1.103 2.473 2.473 2.473z"/>
<path d="m102.13 241.79h22.369c1.37 0 2.473-1.103 2.473-2.473v-5.752c0-1.37-1.103-2.473-2.473-2.473h-22.369c-1.37 0-2.473 1.103-2.473 2.473v5.752c0 1.37 1.103 2.473 2.473 2.473z"/>
<path d="m204.39 241.58h64.702c1.37 0 2.473-1.103 2.473-2.473v-5.752c0-1.37-1.103-2.473-2.473-2.473h-64.702c-1.37 0-2.473 1.103-2.473 2.473v5.752c0 1.37 1.103 2.473 2.473 2.473z"/>
</g>
<g transform="matrix(.32328 0 0 .32328 13.007 128.5)" stroke-width=".26173">
<path d="m43.808 52.206h6.494c1.37 0 2.473 1.103 2.473 2.473v5.752c0 1.37-1.103 2.473-2.473 2.473h-6.494c-1.37 0-2.473-1.103-2.473-2.473v-5.752c0-1.37 1.103-2.473 2.473-2.473z"/>
<path d="m59.683 52.206h11.786c1.37 0 2.473 1.103 2.473 2.473v5.752c0 1.37-1.103 2.473-2.473 2.473h-11.786c-1.37 0-2.473-1.103-2.473-2.473v-5.752c0-1.37 1.103-2.473 2.473-2.473z"/>
<path d="m80.85 52.206h22.369c1.37 0 2.473 1.103 2.473 2.473v5.752c0 1.37-1.103 2.473-2.473 2.473h-22.369c-1.37 0-2.473-1.103-2.473-2.473v-5.752c0-1.37 1.103-2.473 2.473-2.473z"/>
<path d="m112.72 52.206h6.494c1.37 0 2.473 1.103 2.473 2.473v5.752c0 1.37-1.103 2.473-2.473 2.473h-6.494c-1.37 0-2.473-1.103-2.473-2.473v-5.752c0-1.37 1.103-2.473 2.473-2.473z"/>
<path d="m128.59 52.206h11.786c1.37 0 2.473 1.103 2.473 2.473v5.752c0 1.37-1.103 2.473-2.473 2.473h-11.786c-1.37 0-2.473-1.103-2.473-2.473v-5.752c0-1.37 1.103-2.473 2.473-2.473z"/>
</g>
<g transform="matrix(.32328 0 0 .32328 13.648 129.76)" stroke-width=".26173">
<path d="m43.808 67.768h6.494c1.37 0 2.473 1.103 2.473 2.473v5.752c0 1.37-1.103 2.473-2.473 2.473h-6.494c-1.37 0-2.473-1.103-2.473-2.473v-5.752c0-1.37 1.103-2.473 2.473-2.473z"/>
<path d="m59.683 67.768h22.369c1.37 0 2.473 1.103 2.473 2.473v5.752c0 1.37-1.103 2.473-2.473 2.473h-22.369c-1.37 0-2.473-1.103-2.473-2.473v-5.752c0-1.37 1.103-2.473 2.473-2.473z"/>
<path d="m91.433 67.768h11.786c1.37 0 2.473 1.103 2.473 2.473v5.752c0 1.37-1.103 2.473-2.473 2.473h-11.786c-1.37 0-2.473-1.103-2.473-2.473v-5.752c0-1.37 1.103-2.473 2.473-2.473z"/>
<path d="m112.72 67.768h43.536c1.37 0 2.473 1.103 2.473 2.473v5.752c0 1.37-1.103 2.473-2.473 2.473h-43.536c-1.37 0-2.473-1.103-2.473-2.473v-5.752c0-1.37 1.103-2.473 2.473-2.473z"/>
</g>
<g transform="matrix(.32328 0 0 .32328 13.221 130.94)" stroke-width=".26173">
<path d="m43.808 82.402h27.661c1.37 0 2.473 1.103 2.473 2.473v5.752c0 1.37-1.103 2.473-2.473 2.473h-27.661c-1.37 0-2.473-1.103-2.473-2.473v-5.752c0-1.37 1.103-2.473 2.473-2.473z"/>
<path d="m80.965 82.402h64.702c1.37 0 2.473 1.103 2.473 2.473v5.752c0 1.37-1.103 2.473-2.473 2.473h-64.702c-1.37 0-2.473-1.103-2.473-2.473v-5.752c0-1.37 1.103-2.473 2.473-2.473z"/>
</g>
<g transform="matrix(.32328 0 0 .32328 14.717 134.61)" stroke-width=".26173">
<path d="m161.54 144.28h-27.661c-1.37 0-2.473 1.103-2.473 2.473v5.752c0 1.37 1.103 2.473 2.473 2.473h27.661c1.37 0 2.473-1.103 2.473-2.473v-5.752c0-1.37-1.103-2.473-2.473-2.473z"/>
<path d="m124.39 144.28h-59.411c-1.37 0-2.473 1.103-2.473 2.473v5.752c0 1.37 1.103 2.473 2.473 2.473h59.411c1.37 0 2.473-1.103 2.473-2.473v-5.752c0-1.37-1.103-2.473-2.473-2.473z"/>
</g>
<g transform="matrix(.32328 0 0 .32328 16.428 132.88)" stroke-width=".26173">
<path d="m64.975 112.53h27.661c1.37 0 2.473 1.103 2.473 2.473v5.752c0 1.37-1.103 2.473-2.473 2.473h-27.661c-1.37 0-2.473-1.103-2.473-2.473v-5.752c0-1.37 1.103-2.473 2.473-2.473z"/>
<path d="m144.47 112.53h59.411c1.37 0 2.473 1.103 2.473 2.473v5.752c0 1.37-1.103 2.473-2.473 2.473h-59.411c-1.37 0-2.473-1.103-2.473-2.473v-5.752c0-1.37 1.103-2.473 2.473-2.473z"/>
<path d="m102.87 112.53h32.952c1.37 0 2.473 1.103 2.473 2.473v5.752c0 1.37-1.103 2.473-2.473 2.473h-32.952c-1.37 0-2.473-1.103-2.473-2.473v-5.752c0-1.37 1.103-2.473 2.473-2.473z"/>
</g>
<g transform="matrix(.32328 0 0 .32328 14.717 132.09)" stroke-width=".26173">
<path d="m64.975 96.658h27.661c1.37 0 2.473 1.103 2.473 2.473v5.752c0 1.37-1.103 2.473-2.473 2.473h-27.661c-1.37 0-2.473-1.103-2.473-2.473v-5.752c0-1.37 1.103-2.473 2.473-2.473z"/>
<path d="m102.13 96.658h59.411c1.37 0 2.473 1.103 2.473 2.473v5.752c0 1.37-1.103 2.473-2.473 2.473h-59.411c-1.37 0-2.473-1.103-2.473-2.473v-5.752c0-1.37 1.103-2.473 2.473-2.473z"/>
</g>
<g transform="matrix(.32328 0 0 .32328 18.636 133.8)" stroke-width=".26173">
<path d="m134.74 128.62h59.411c1.37 0 2.473 1.103 2.473 2.473v5.752c0 1.37-1.103 2.473-2.473 2.473h-59.411c-1.37 0-2.473-1.103-2.473-2.473v-5.752c0-1.37 1.103-2.473 2.473-2.473z"/>
<path d="m86.141 128.41h6.4939c1.37 0 2.473 1.103 2.473 2.473v5.752c0 1.37-1.103 2.473-2.473 2.473h-6.4939c-1.37 0-2.473-1.103-2.473-2.473v-5.752c0-1.37 1.103-2.473 2.473-2.473z"/>
<path d="m102.13 128.41h22.369c1.37 0 2.473 1.103 2.473 2.473v5.752c0 1.37-1.103 2.473-2.473 2.473h-22.369c-1.37 0-2.473-1.103-2.473-2.473v-5.752c0-1.37 1.103-2.473 2.473-2.473z"/>
<path d="m204.39 128.62h32.952c1.37 0 2.473 1.103 2.473 2.473v5.752c0 1.37-1.103 2.473-2.473 2.473h-32.952c-1.37 0-2.473-1.103-2.473-2.473v-5.752c0-1.37 1.103-2.473 2.473-2.473z"/>
</g>
<g transform="matrix(.32328 0 0 -.32328 13.007 242.89)" stroke-width=".26173">
<path d="m43.808 52.206h6.494c1.37 0 2.473 1.103 2.473 2.473v5.752c0 1.37-1.103 2.473-2.473 2.473h-6.494c-1.37 0-2.473-1.103-2.473-2.473v-5.752c0-1.37 1.103-2.473 2.473-2.473z"/>
<path d="m59.683 52.206h11.786c1.37 0 2.473 1.103 2.473 2.473v5.752c0 1.37-1.103 2.473-2.473 2.473h-11.786c-1.37 0-2.473-1.103-2.473-2.473v-5.752c0-1.37 1.103-2.473 2.473-2.473z"/>
<path d="m80.85 52.206h22.369c1.37 0 2.473 1.103 2.473 2.473v5.752c0 1.37-1.103 2.473-2.473 2.473h-22.369c-1.37 0-2.473-1.103-2.473-2.473v-5.752c0-1.37 1.103-2.473 2.473-2.473z"/>
<path d="m112.72 52.206h6.494c1.37 0 2.473 1.103 2.473 2.473v5.752c0 1.37-1.103 2.473-2.473 2.473h-6.494c-1.37 0-2.473-1.103-2.473-2.473v-5.752c0-1.37 1.103-2.473 2.473-2.473z"/>
<path d="m128.59 52.206h11.786c1.37 0 2.473 1.103 2.473 2.473v5.752c0 1.37-1.103 2.473-2.473 2.473h-11.786c-1.37 0-2.473-1.103-2.473-2.473v-5.752c0-1.37 1.103-2.473 2.473-2.473z"/>
</g>
<g transform="matrix(.32328 0 0 -.32328 13.648 241.63)" stroke-width=".26173">
<path d="m43.808 67.768h6.494c1.37 0 2.473 1.103 2.473 2.473v5.752c0 1.37-1.103 2.473-2.473 2.473h-6.494c-1.37 0-2.473-1.103-2.473-2.473v-5.752c0-1.37 1.103-2.473 2.473-2.473z"/>
<path d="m59.683 67.768h22.369c1.37 0 2.473 1.103 2.473 2.473v5.752c0 1.37-1.103 2.473-2.473 2.473h-22.369c-1.37 0-2.473-1.103-2.473-2.473v-5.752c0-1.37 1.103-2.473 2.473-2.473z"/>
<path d="m91.433 67.768h11.786c1.37 0 2.473 1.103 2.473 2.473v5.752c0 1.37-1.103 2.473-2.473 2.473h-11.786c-1.37 0-2.473-1.103-2.473-2.473v-5.752c0-1.37 1.103-2.473 2.473-2.473z"/>
<path d="m112.72 67.768h43.536c1.37 0 2.473 1.103 2.473 2.473v5.752c0 1.37-1.103 2.473-2.473 2.473h-43.536c-1.37 0-2.473-1.103-2.473-2.473v-5.752c0-1.37 1.103-2.473 2.473-2.473z"/>
</g>
<g transform="matrix(.32328 0 0 .32328 13.221 120.77)" stroke-width=".26173">
<path d="m43.808 287.8h27.661c1.37 0 2.473-1.103 2.473-2.473v-5.752c0-1.37-1.103-2.473-2.473-2.473h-27.661c-1.37 0-2.473 1.103-2.473 2.473v5.752c0 1.37 1.103 2.473 2.473 2.473z"/>
<path d="m80.965 287.8h64.702c1.37 0 2.473-1.103 2.473-2.473v-5.752c0-1.37-1.103-2.473-2.473-2.473h-64.702c-1.37 0-2.473 1.103-2.473 2.473v5.752c0 1.37 1.103 2.473 2.473 2.473z"/>
</g>
<g transform="matrix(.32328 0 0 .32328 16.428 118.84)" stroke-width=".26173">
<path d="m86.141 257.67h27.661c1.37 0 2.473-1.103 2.473-2.473v-5.752c0-1.37-1.103-2.473-2.473-2.473h-27.661c-1.37 0-2.473 1.103-2.473 2.473v5.752c0 1.37 1.103 2.473 2.473 2.473z"/>
<path d="m123.3 257.67h59.411c1.37 0 2.473-1.103 2.473-2.473v-5.752c0-1.37-1.103-2.473-2.473-2.473h-59.411c-1.37 0-2.473 1.103-2.473 2.473v5.752c0 1.37 1.103 2.473 2.473 2.473z"/>
</g>
<g transform="matrix(.32328 0 0 .32328 17.07 119.62)" stroke-width=".26173">
<path d="m64.975 273.54h27.661c1.37 0 2.473-1.103 2.473-2.473v-5.752c0-1.37-1.103-2.473-2.473-2.473h-27.661c-1.37 0-2.473 1.103-2.473 2.473v5.752c0 1.37 1.103 2.473 2.473 2.473z"/>
<path d="m102.13 273.54h117.62c1.37 0 2.473-1.103 2.473-2.473v-5.752c0-1.37-1.103-2.473-2.473-2.473h-117.62c-1.37 0-2.473 1.103-2.473 2.473v5.752c0 1.37 1.103 2.473 2.473 2.473z"/>
</g>
<g transform="matrix(-.32328 0 0 .32328 94.031 117.35)" stroke-width=".26173">
<path d="m161.54 225.92h-27.661c-1.37 0-2.473-1.103-2.473-2.473v-5.752c0-1.37 1.103-2.473 2.473-2.473h27.661c1.37 0 2.473 1.103 2.473 2.473v5.752c0 1.37-1.103 2.473-2.473 2.473z"/>
<path d="m124.39 225.92h-59.411c-1.37 0-2.473-1.103-2.473-2.473v-5.752c0-1.37 1.103-2.473 2.473-2.473h59.411c1.37 0 2.473 1.103 2.473 2.473v5.752c0 1.37-1.103 2.473-2.473 2.473z"/>
<path d="m171.78 225.92h6.4939c1.37 0 2.473-1.103 2.473-2.473v-5.752c0-1.37-1.103-2.473-2.473-2.473h-6.4939c-1.37 0-2.473 1.103-2.473 2.473v5.752c0 1.37 1.103 2.473 2.473 2.473z"/>
</g>
<g transform="matrix(.32328 0 0 .32328 19.919 118.17)" stroke-width=".26173">
<path d="m134.74 241.58h59.411c1.37 0 2.473-1.103 2.473-2.473v-5.752c0-1.37-1.103-2.473-2.473-2.473h-59.411c-1.37 0-2.473 1.103-2.473 2.473v5.752c0 1.37 1.103 2.473 2.473 2.473z"/>
<path d="m86.141 241.79h6.4939c1.37 0 2.473-1.103 2.473-2.473v-5.752c0-1.37-1.103-2.473-2.473-2.473h-6.4939c-1.37 0-2.473 1.103-2.473 2.473v5.752c0 1.37 1.103 2.473 2.473 2.473z"/>
<path d="m102.13 241.79h22.369c1.37 0 2.473-1.103 2.473-2.473v-5.752c0-1.37-1.103-2.473-2.473-2.473h-22.369c-1.37 0-2.473 1.103-2.473 2.473v5.752c0 1.37 1.103 2.473 2.473 2.473z"/>
<path d="m204.39 241.58h64.702c1.37 0 2.473-1.103 2.473-2.473v-5.752c0-1.37-1.103-2.473-2.473-2.473h-64.702c-1.37 0-2.473 1.103-2.473 2.473v5.752c0 1.37 1.103 2.473 2.473 2.473z"/>
</g>
</g>
</svg>
