<?xml version="1.0" encoding="UTF-8"?>
<svg width="28.208mm" height="36.043mm" version="1.1" viewBox="0 0 28.208 36.043" xml:space="preserve" xmlns="http://www.w3.org/2000/svg"><g transform="translate(-18.546 -14.871)"><g stroke-width=".15763"><path d="m35.197 32.521s0.44434-3.3437 2.6525-5.6081c2.2082-2.2644 4.0265-2.1625 6.075-3.9431 2.0484-1.7806 2.8186-3.471 2.8186-3.471s0.40267 7.176-3.4546 10.495c-3.8573 3.3194-8.0914 2.5268-8.0914 2.5268z" fill="#172033"/><path d="m34.123 31.953s-1.7136-3.8502-0.36671-6.8401c1.3469-2.9898 3.1611-4.3306 4.6719-5.5464s3.3807-4.695 3.3807-4.695 0.81296 1.2719 1.1919 2.9802c0.37893 1.7083 0.32381 3.8528-0.01828 4.3566-0.68421 1.0075-3.0805 1.4852-5.5877 3.6279-2.5072 2.1426-3.2717 6.1169-3.2717 6.1169z" fill="#383854"/><path d="m35.197 33.264s0.44434 3.3437 2.6525 5.6081c2.2082 2.2644 4.0265 2.1625 6.075 3.9431 2.0484 1.7806 2.8186 3.471 2.8186 3.471s0.40267-7.176-3.4546-10.495c-3.8573-3.3194-8.0914-2.5268-8.0914-2.5268z" fill="#172033"/><path d="m34.123 33.833s-1.7136 3.8502-0.36671 6.8401c1.3469 2.9898 3.1611 4.3306 4.6719 5.5464s3.3807 4.695 3.3807 4.695 0.81296-1.2719 1.1919-2.9802c0.37893-1.7083 0.32381-3.8528-0.01828-4.3566-0.68421-1.0075-3.0805-1.4852-5.5877-3.6279-2.5072-2.1426-3.2717-6.1169-3.2717-6.1169z" fill="#383854"/><path d="m30.104 32.521s-0.44434-3.3437-2.6525-5.6081c-2.2082-2.2644-4.0265-2.1625-6.075-3.9431-2.0484-1.7806-2.8186-3.471-2.8186-3.471s-0.40268 7.176 3.4546 10.495c3.8573 3.3194 8.0914 2.5268 8.0914 2.5268z" fill="#172033"/><path d="m31.178 31.953s1.7136-3.8502 0.36671-6.8401c-1.3469-2.9898-3.1611-4.3306-4.6719-5.5464s-3.3807-4.695-3.3807-4.695-0.81296 1.2719-1.1919 2.9802c-0.37892 1.7083-0.32381 3.8528 0.01828 4.3566 0.68422 1.0075 3.0805 1.4852 5.5877 3.6279 2.5072 2.1426 3.2717 6.1169 3.2717 6.1169z" fill="#383854"/><path d="m30.104 33.264s-0.44434 3.3437-2.6525 5.6081c-2.2082 2.2644-4.0265 2.1625-6.075 3.9431-2.0484 1.7806-2.8186 3.471-2.8186 3.471s-0.40268-7.176 3.4546-10.495c3.8573-3.3194 8.0914-2.5268 8.0914-2.5268z" fill="#172033"/><path d="m31.178 33.833s1.7136 3.8502 0.36671 6.8401c-1.3469 2.9898-3.1611 4.3306-4.6719 5.5464s-3.3807 4.695-3.3807 4.695-0.81296-1.2719-1.1919-2.9802c-0.37893-1.7083-0.32381-3.8528 0.01828-4.3566 0.68421-1.0075 3.0805-1.4852 5.5877-3.6279 2.5072-2.1426 3.2717-6.1169 3.2717-6.1169z" fill="#383854"/></g></g></svg>
