<?xml version="1.0" encoding="UTF-8"?>
<svg width="585.28mm" height="411.94mm" version="1.1" viewBox="0 0 585.28 411.94" xml:space="preserve" xmlns="http://www.w3.org/2000/svg"><defs><filter id="c" x="-.10868" y="-.36455" width="1.2174" height="1.7291" color-interpolation-filters="sRGB"><feGaussianBlur stdDeviation="12.478782"/></filter><filter id="b" x="-.097019" y="-.36455" width="1.194" height="1.7291" color-interpolation-filters="sRGB"><feGaussianBlur stdDeviation="12.478782"/></filter><filter id="a" x="-.12152" y="-.36455" width="1.243" height="1.7291" color-interpolation-filters="sRGB"><feGaussianBlur stdDeviation="12.478782"/></filter></defs><g transform="translate(-745.45 -178.87)"><g transform="matrix(.83227 0 0 .83227 -22.053 31.044)" fill="#434869" fill-opacity=".52012"><rect x="954.63" y="210.07" width="267.04" height="89.012" ry="28.876" filter="url(#a)" stroke="#53156a" stroke-width="5"/><rect x="954.63" y="210.07" width="267.04" height="89.012" ry="28.876"/></g><text transform="matrix(.2202 0 0 .2202 518.23 214.25)" fill="#ffffff" font-family="Monospace" font-size="160px" letter-spacing="0px" stroke="#000000" stroke-width="1.3946" text-align="center" style="shape-inside:url(#rect521);white-space:pre" xml:space="preserve"><tspan x="1369.4404" y="189.8418"><tspan stroke="none">"code"</tspan></tspan></text><g transform="matrix(.83227 0 0 .83227 169.65 37.724)" fill="#434869" fill-opacity=".52012"><rect x="914.12" y="361.13" width="334.46" height="89.012" ry="28.876" filter="url(#b)" stroke="#53156a" stroke-width="5"/><rect x="914.12" y="361.13" width="334.46" height="89.012" ry="28.876"/></g><text transform="matrix(.2202 0 0 .2202 675.33 346.75)" fill="#ffffff" font-family="Monospace" font-size="160px" letter-spacing="0px" stroke="#000000" stroke-width="1.3946" text-align="center" style="shape-inside:url(#rect523);white-space:pre" xml:space="preserve"><tspan x="1260.748" y="189.8418"><tspan stroke="none">"visualize"</tspan></tspan></text><g transform="matrix(.83227 0 0 .83227 268.69 59.238)" fill="#434869" fill-opacity=".52012"><rect x="945.05" y="517.24" width="298.59" height="89.012" ry="28.876" filter="url(#c)" stroke="#53156a" stroke-width="5"/><rect x="945.05" y="517.24" width="298.59" height="89.012" ry="28.876"/></g><text transform="matrix(.2202 0 0 .2202 791.56 498.1)" fill="#ffffff" font-family="Monospace" font-size="160px" letter-spacing="0px" stroke="#000000" stroke-width="1.3946" text-align="center" style="shape-inside:url(#rect525);white-space:pre" xml:space="preserve"><tspan x="1279.9912" y="189.8418"><tspan stroke="none">"interact"</tspan></tspan></text><g stroke-linecap="round"><path d="m1077.2 410.83s1.9424 31.772 21.553 37.027c19.611 5.2548 44.558-14.691 64.333-3.2738 19.775 11.417 15.471 38.72 15.471 38.72" fill="none" stroke="#c8c9cd" stroke-dasharray="9.9872, 7.4904" stroke-linejoin="round" stroke-width="2.4968"/><path transform="matrix(.40576 0 0 .40576 789.83 353.05)" d="m957.14 352.23-15.705-27.203-3.1411-5.4405a3.627 3.627 120 0 1 3.1411-5.4405h37.693a3.627 3.627 60 0 1 3.1411 5.4405l-18.846 32.643a3.627 3.627 0 0 1-6.2821 0z" fill="#c8c9cd" stroke-dasharray="12, 8.99999" stroke-opacity=".75" stroke-width="3"/></g><g stroke-linecap="round"><path transform="matrix(.3514 -.20288 .20288 .3514 667.71 416.44)" d="m957.14 352.23-15.705-27.203-3.1411-5.4405a3.627 3.627 120 0 1 3.1411-5.4405h37.693a3.627 3.627 60 0 1 3.1411 5.4405l-18.846 32.643a3.627 3.627 0 0 1-6.2821 0z" fill="#c8c9cd" stroke-dasharray="12, 8.99999" stroke-opacity=".75" stroke-width="3"/><path d="m885.81 280.24s14.636 23.762 39.733 28.1c27.949 4.8308 96.256-22.58 130.17 8.6503 6.574 6.0533 14.685 17.136 14.685 17.136" fill="none" stroke="#c8c9cd" stroke-dasharray="9.9872, 7.4904" stroke-linejoin="round" stroke-width="2.4968"/></g></g></svg>
