<?xml version="1.0" encoding="UTF-8"?>
<svg width="46.704mm" height="45.626mm" version="1.1" viewBox="0 0 46.704 45.626" xml:space="preserve" xmlns="http://www.w3.org/2000/svg"><g transform="translate(-110.74 -132.34)"><path d="m126.78 177.95c-0.44427-0.0867-2.3456-0.87789-3.4163-1.4216-5.6162-2.8522-10.053-8.2638-11.788-14.379-0.60165-2.1199-0.83237-3.9021-0.83453-6.4466-2e-3 -2.0883 0.0864-3.0192 0.45788-4.832 1.7295-8.4407 8.2802-15.417 16.623-17.704 4.7679-1.3067 10.222-1.042 14.714 0.71431 5.47 2.1388 9.8711 6.1506 12.504 11.398 1.203 2.3977 1.9309 4.8015 2.2981 7.5889 0.14417 1.0944 0.14319 4.5215-2e-3 5.6693-0.45743 3.626-1.6561 6.9307-3.5767 9.8607-2.7728 4.2302-6.5338 7.3152-11.114 9.1167-1.4132 0.55581-1.9192 0.58848-2.3558 0.15212l-0.29602-0.29585-0.0554-4.1361c-0.0593-4.427-0.0822-4.6588-0.56751-5.7486-0.12018-0.26987-0.38674-0.70233-0.59236-0.96102l-0.37384-0.47036 0.74884-0.10481c2.3939-0.33506 4.2587-0.99117 5.8677-2.0645 1.9568-1.3052 3.1625-3.3309 3.755-6.3084 0.19496-0.97982 0.27913-3.7304 0.14113-4.612-0.23528-1.503-0.97887-3.1695-1.9109-4.2827l-0.36718-0.43856 0.22478-0.77412c0.39908-1.3744 0.29269-3.3017-0.26867-4.8671-0.17814-0.49675-0.23554-0.5687-0.51018-0.6395-0.84972-0.21905-3.2612 0.66475-5.3519 1.9615-0.52082 0.32303-0.7996 0.44265-0.9646 0.41393-0.12764-0.0222-0.64927-0.12833-1.1592-0.23579-2.9167-0.61471-6.1106-0.61471-9.0273 0-0.50989 0.10746-1.034 0.21393-1.1646 0.23659-0.17122 0.0297-0.41862-0.0749-0.88629-0.37464-1.8645-1.1951-4.5043-2.1614-5.4747-2.0039-0.29468 0.0478-0.31579 0.0792-0.53403 0.79474-0.35391 1.1603-0.44356 1.7535-0.43655 2.8885 5e-3 0.84278 0.052 1.2047 0.23562 1.8229l0.22912 0.77131-0.35198 0.41743c-0.92355 1.0953-1.69 2.8115-1.9245 4.3095-0.1382 0.88282-0.0537 3.634 0.14163 4.611 0.46846 2.3433 1.3771 4.2074 2.6439 5.4238 0.95213 0.91428 2.4876 1.8016 3.9892 2.3054 0.65263 0.21894 2.3982 0.58909 3.2205 0.6829l0.52298 0.0597-0.3561 0.45051c-0.4626 0.58523-0.79688 1.3013-0.97438 2.0873-0.13896 0.61531-0.15215 0.63479-0.52339 0.77227-0.81866 0.3032-1.2467 0.37038-2.3925 0.37548-1.1739 5e-3 -1.1965 1e-3 -1.8076-0.30523-0.79138-0.39711-1.4758-1.0575-2.1022-2.0285-0.90746-1.4065-2.286-2.3974-3.5061-2.5202-0.70193-0.0706-1.2252 0.0805-1.2252 0.35385 0 0.20822 0.73469 0.95195 1.382 1.399 0.22059 0.15235 0.61923 0.56383 0.88585 0.91441 0.43483 0.57175 0.65395 0.97515 1.4564 2.6812 0.43994 0.93531 1.5455 1.7963 2.768 2.1557 0.27661 0.0813 1.079 0.19399 1.7831 0.2504 1.0459 0.0838 1.4433 0.0785 2.1717-0.029l0.89155-0.13154 0.0225 1.6044c0.0453 3.2254 0.0252 3.3982-0.42989 3.6964-0.24066 0.15768-0.73018 0.23911-1.0557 0.17561z" fill="#a0a0b0" stroke-width=".091441"/></g></svg>
