<?xml version="1.0" encoding="UTF-8"?>
<svg width="52.255mm" height="53.431mm" version="1.1" viewBox="0 0 52.255 53.431" xml:space="preserve" xmlns="http://www.w3.org/2000/svg"><g transform="translate(-26.572 -87.184)"><path d="m51.766 140.55c-3.5616-0.18858-7.071-1.1133-10.354-2.7283-6.2857-3.0921-11.204-8.7257-13.453-15.41-0.97982-2.9116-1.3842-5.4074-1.3867-8.5574-0.0024-3.0212 0.40344-5.5337 1.355-8.3897 1.8661-5.6008 5.4326-10.325 10.315-13.663 6.8961-4.7144 15.771-5.9074 23.723-3.1891 3.1333 1.071 6.3691 2.9867 8.7768 5.1961l0.36622 0.33607-1.5377 1.5149c-0.84574 0.83319-2.5442 2.498-3.7745 3.6997l-2.2368 2.1848-0.65282-0.54066c-2.2669-1.8774-4.9196-2.9918-7.936-3.3338-1.0539-0.11948-3.3668-0.0481-4.4036 0.13592-6.0803 1.0791-11.041 5.5975-12.685 11.554-0.69093 2.5035-0.81525 5.0834-0.3605 7.4807 0.96376 5.0806 4.1321 9.3723 8.5797 11.622 1.4847 0.75099 2.8705 1.2134 4.5293 1.5114 0.99162 0.17812 3.2347 0.24461 4.4374 0.13153 3.6948-0.34739 6.7617-1.7038 9.1148-4.0314 1.8839-1.8634 3.2596-4.4352 3.6606-6.8432l0.0416-0.24969h-14.655v-9.9877h25.087l0.14303 0.74908c0.30589 1.602 0.36493 2.3627 0.36561 4.7109 8.1e-4 2.7699-0.17041 4.492-0.66865 6.7251-1.8425 8.2579-7.0914 14.558-14.607 17.533-2.8279 1.1194-5.7322 1.7043-9.1554 1.8439-0.8423 0.0344-1.5614 0.0587-1.598 0.054-0.0366-5e-3 -0.50105-0.0315-1.0321-0.0596z" fill="#a0a0b0" stroke-width=".066585"/></g></svg>
