<?xml version="1.0" encoding="UTF-8"?>
<svg width="48.834mm" height="84.47mm" version="1.1" viewBox="0 0 48.834 84.47" xml:space="preserve" xmlns="http://www.w3.org/2000/svg"><g transform="translate(-126.96 -117.9)"><path d="m148.07 202.36c-0.0997-7e-3 -0.2728-0.0316-0.38474-0.0538l-0.20351-0.0404-0.17134-1.6399c-0.40484-3.8747-1.0619-10.395-1.7969-17.829-1.1625-11.76-1.2652-12.792-1.2893-12.96-0.0187-0.12989-5e-3 -0.17021 0.0896-0.26423l0.11158-0.11095 3.4432 0.0105c3.0261 9e-3 4.9875 0.0352 5.0188 0.0665 6e-3 5e-3 -0.12378 1.396-0.28726 3.09-0.16348 1.694-0.42579 4.4211-0.58293 6.0602-0.76571 7.987-1.3182 13.291-1.875 18.002-0.21356 1.8065-0.65306 5.3093-0.68572 5.4651-0.0126 0.0599-0.0533 0.11748-0.0905 0.12794-0.21703 0.061-0.93332 0.10325-1.296 0.0764zm-3.5171-34.388c-4e-3 -2e-3 -0.7316-0.0162-1.6176-0.0305-1.7764-0.0285-2.684-0.0621-2.7252-0.10075-0.0719-0.0673-0.10719-1.1443-0.10081-3.0741l7e-3 -2.1226 0.68462-0.014c1.0202-0.0208 13.697 3e-3 13.954 0.026 0.12183 0.011 0.70997 0.0302 1.307 0.0427 0.59702 0.0125 1.1006 0.0378 1.1191 0.0563 0.0564 0.0564 0.0553 3.8219-1e-3 4.4362-0.0275 0.29901-0.0593 0.58897-0.0706 0.64435l-0.0205 0.10068-5.2846 0.0113c-2.9066 6e-3 -5.7256 0.0153-6.2646 0.0201-0.53898 5e-3 -0.98298 7e-3 -0.98666 4e-3zm-3.5909-7.1672c-0.0886-8e-3 -0.38762-0.0356-0.66449-0.0603-1.9316-0.1723-4.0672-0.78006-5.8122-1.654-2.9194-1.4621-5.2702-3.7745-6.408-6.303-0.75743-1.6832-1.1212-3.4066-1.125-5.3294-2e-3 -1.2656 0.10023-2.1158 0.403-3.3354 0.46813-1.8858 1.2109-3.5742 3.0767-6.9943 1.3229-2.4248 2.1164-4.0741 2.5935-5.3902 0.4077-1.1247 0.71357-2.3316 0.85557-3.376l0.0694-0.51041 0.11532 0.0596c0.55712 0.2881 1.1581 1.2947 1.9836 3.3221 0.14767 0.36272 0.45645 1.0696 0.68618 1.5708 0.77135 1.683 0.92363 2.1442 0.92236 2.7937-1e-3 0.58196-0.10951 0.85335-0.91524 2.2919-0.419 0.7481-0.6513 1.2526-1.1167 2.425-0.66447 1.674-1.0253 3.0257-1.2349 4.6261-0.0957 0.73094-0.0946 2.3785 2e-3 3.1009 0.43721 3.2672 1.7708 5.9791 4.0464 8.2283 1.0805 1.068 2.1067 1.8682 4.6289 3.6095 0.60474 0.4175 1.085 0.77214 1.0672 0.7881-0.0964 0.0865-2.5803 0.19376-3.1735 0.13698zm10.746-0.12868-0.20781-0.0129-0.0294-0.39067c-0.0468-0.62045 9e-3 -2.2034 0.10256-2.9077 0.38617-2.9088 1.4556-5.4804 3.2679-7.8583 0.52244-0.68549 0.89355-1.104 1.6212-1.8282 0.91167-0.90734 1.7402-1.5832 2.8232-2.3029 0.7619-0.50634 1.2352-0.76384 3.259-1.7732 2.838-1.4154 4.1622-2.1265 5.4637-2.9342 2.8249-1.753 4.728-3.531 6.0733-5.6743 0.32633-0.51989 0.84226-1.5649 1.0633-2.1536 0.14482-0.38575 0.19408-0.47423 0.29769-0.53475 0.10512-0.0614 0.14096-0.0648 0.23369-0.0226l0.10953 0.0499-0.0256 0.70634c-0.18807 5.1939-1.0979 9.4094-2.8963 13.419-1.852 4.1295-4.8069 8.0464-7.7539 10.278-2.9609 2.2423-6.818 3.6084-10.979 3.8886-0.66113 0.0445-2.0522 0.0736-2.4228 0.0506zm-4.3429-0.35551c-2.218-0.39557-4.355-1.6798-7.1676-4.3075-2.4185-2.2595-3.8073-4.6017-4.3086-7.2664-0.24895-1.3235-0.28174-3.114-0.0803-4.3815 0.20942-1.3174 0.70005-2.7362 1.5277-4.4179 0.70433-1.4311 1.6577-3.0334 3.1028-5.2152 1.2916-1.95 2.0898-3.0346 4.2674-5.7992 2.1423-2.7198 2.7678-3.5555 3.6319-4.8528 1.3312-1.9986 2.2578-3.8233 2.812-5.5374 0.14778-0.4571 0.26589-0.64435 0.40643-0.64435 0.0707 0 0.83804 1.5305 1.3602 2.713 0.99666 2.2572 1.9253 4.7825 2.6899 7.3146 0.62214 2.0604 0.77421 2.7817 0.77713 3.6857 2e-3 0.60101 1e-3 0.60649-0.12714 0.86715-0.18637 0.37869-0.67009 0.93567-1.5249 1.7559-0.41203 0.39533-0.91374 0.90001-1.1149 1.1215-0.20116 0.2215-0.86559 0.93742-1.4765 1.591-0.6109 0.65352-1.3022 1.3965-1.5362 1.6512-2.6157 2.8458-4.1739 5.2217-4.77 7.2732-0.80698 2.7773-0.69091 6.985 0.2808 10.178 0.24873 0.81747 0.44711 1.2598 0.90718 2.0231 0.415 0.68846 0.65466 1.1326 0.75865 1.406 0.0712 0.18707 0.16681 0.62989 0.16747 0.77523 5.6e-4 0.12168-9e-3 0.13063-0.13029 0.12727-0.072-2e-3 -0.27586-0.0295-0.45306-0.0611zm2.1607-0.73068c-0.98672-0.98981-1.8956-3.1429-2.4183-5.7287-0.22867-1.1313-0.26608-1.5501-0.2644-2.96 2e-3 -1.3864 0.0499-1.9248 0.28329-3.1614 0.19134-1.0138 0.74481-3.0335 0.93228-3.4022 0.13585-0.26713 1.016-1.5569 1.5206-2.2285 1.165-1.5502 2.3771-2.9222 4.7528-5.3796 1.9584-2.0256 2.4798-2.5719 3.1573-3.3077 1.6097-1.7481 2.8173-3.2535 3.8005-4.7376 0.63286-0.95523 1.0443-1.6678 1.564-2.7085 0.37816-0.75729 0.55912-1.045 0.61877-0.9837 0.0495 0.0509 0.42265 0.71738 0.60373 1.0784 1.0583 2.1102 2.0138 5.5759 2.4545 8.903 0.32622 2.4627 0.37934 3.9412 0.16361 4.5541-0.0803 0.22801-0.35869 0.5112-0.74984 0.76265-0.34411 0.22122-1.308 0.70281-2.3704 1.1843-0.38751 0.17562-1.0416 0.50535-1.4536 0.73273-1.2143 0.67019-3.7976 2.1716-4.2988 2.4984-0.98498 0.64222-2.0659 1.5394-2.8638 2.3769-2.8606 3.0026-4.5383 7.0556-4.9808 12.032-0.0385 0.43298-0.0858 0.78723-0.1052 0.78723s-0.17521-0.14045-0.34633-0.3121z" fill="#a0a0b0" stroke-width=".040272"/></g></svg>
