<?xml version="1.0" encoding="UTF-8" standalone="no"?>
<!-- Created with Inkscape (http://www.inkscape.org/) -->

<svg
   width="262.45059mm"
   height="55.006268mm"
   viewBox="0 0 262.45059 55.006268"
   version="1.1"
   id="svg1"
   xml:space="preserve"
   xmlns="http://www.w3.org/2000/svg"
   xmlns:svg="http://www.w3.org/2000/svg"><defs
     id="defs1"><rect
       x="421.11087"
       y="64.053619"
       width="1019.5233"
       height="251.80399"
       id="rect15" /></defs><g
     id="layer1"
     transform="translate(542.27971,-271.7739)"><g
       id="g16"><text
         xml:space="preserve"
         transform="matrix(0.26363751,0,0,0.26363751,-603.16044,270.10649)"
         id="text2"
         style="font-style:normal;font-variant:normal;font-weight:normal;font-stretch:normal;font-size:96px;font-family:Monospace;-inkscape-font-specification:Monospace;white-space:pre;shape-inside:url(#rect15);display:inline;fill:#ffffff;fill-opacity:1;stroke-width:1.39465;stroke-dasharray:none"><tspan
           x="421.11133"
           y="148.99023"
           id="tspan4"><tspan
             style="font-weight:bold"
             id="tspan3">CodeVisualizer</tspan></tspan></text><g
         id="g15"
         transform="matrix(1.5261082,0,0,1.5261082,-570.5835,249.07914)"
         style="fill:#a500c1;fill-opacity:1"><g
           id="g5"
           style="fill:#a500c1;fill-opacity:1"><path
             style="fill:#a500c1;fill-opacity:1;stroke-width:0.157633;stroke-dasharray:none"
             d="m 35.196796,32.521285 c 0,0 0.444338,-3.343686 2.652494,-5.608121 2.208152,-2.264432 4.026515,-2.162486 6.074958,-3.943099 2.048439,-1.780613 2.818564,-3.470971 2.818564,-3.470971 0,0 0.402673,7.175989 -3.454598,10.495364 -3.857275,3.31938 -8.091418,2.526827 -8.091418,2.526827 z"
             id="path2" /><path
             style="fill:#a500c1;fill-opacity:1;stroke-width:0.157633;stroke-dasharray:none"
             d="m 34.123051,31.952538 c 0,0 -1.713595,-3.850244 -0.366713,-6.840084 1.346887,-2.989839 3.161115,-4.330611 4.671897,-5.546425 1.510782,-1.215814 3.380698,-4.695007 3.380698,-4.695007 0,0 0.812963,1.271946 1.191885,2.980203 0.378926,1.708257 0.323814,3.852827 -0.01828,4.356583 -0.684212,1.007513 -3.080529,1.485236 -5.587731,3.627868 -2.507202,2.142635 -3.271739,6.116862 -3.271739,6.116862 z"
             id="path3" /><path
             style="fill:#a500c1;fill-opacity:1;stroke-width:0.157633;stroke-dasharray:none"
             d="m 35.196796,33.264241 c 0,0 0.444338,3.343686 2.652494,5.608121 2.208152,2.264432 4.026515,2.162486 6.074958,3.943099 2.048439,1.780613 2.818564,3.470971 2.818564,3.470971 0,0 0.402673,-7.175989 -3.454598,-10.495364 -3.857275,-3.31938 -8.091418,-2.526827 -8.091418,-2.526827 z"
             id="path4" /><path
             style="fill:#a500c1;fill-opacity:1;stroke-width:0.157633;stroke-dasharray:none"
             d="m 34.123051,33.832988 c 0,0 -1.713595,3.850244 -0.366713,6.840084 1.346887,2.989839 3.161115,4.330611 4.671897,5.546425 1.510782,1.215814 3.380698,4.695007 3.380698,4.695007 0,0 0.812963,-1.271946 1.191885,-2.980203 0.378926,-1.708257 0.323814,-3.852827 -0.01828,-4.356583 -0.684212,-1.007513 -3.080529,-1.485236 -5.587731,-3.627868 -2.507202,-2.142635 -3.271739,-6.116862 -3.271739,-6.116862 z"
             id="path5" /></g><g
           id="g14"
           style="fill:#a500c1;fill-opacity:1"><path
             style="fill:#a500c1;fill-opacity:1;stroke-width:0.157633;stroke-dasharray:none"
             d="m 30.104439,32.521285 c 0,0 -0.444342,-3.343686 -2.652494,-5.608121 -2.208152,-2.264432 -4.02652,-2.162486 -6.074958,-3.943099 -2.048444,-1.780613 -2.818564,-3.470971 -2.818564,-3.470971 0,0 -0.402675,7.175989 3.454598,10.495364 3.857271,3.31938 8.091418,2.526827 8.091418,2.526827 z"
             id="path11" /><path
             style="fill:#a500c1;fill-opacity:1;stroke-width:0.157633;stroke-dasharray:none"
             d="m 31.17818,31.952538 c 0,0 1.713595,-3.850244 0.366712,-6.840084 -1.346882,-2.989839 -3.161114,-4.330611 -4.671896,-5.546425 -1.510782,-1.215814 -3.380694,-4.695007 -3.380694,-4.695007 0,0 -0.812963,1.271946 -1.191889,2.980203 -0.378922,1.708257 -0.32381,3.852827 0.01828,4.356583 0.684217,1.007513 3.08053,1.485236 5.587732,3.627868 2.507206,2.142635 3.271743,6.116862 3.271743,6.116862 z"
             id="path12" /><path
             style="fill:#a500c1;fill-opacity:1;stroke-width:0.157633;stroke-dasharray:none"
             d="m 30.104439,33.264211 c 0,0 -0.444338,3.343686 -2.652494,5.608121 -2.208152,2.264432 -4.026515,2.162486 -6.074958,3.943099 -2.048439,1.780613 -2.818562,3.470971 -2.818562,3.470971 0,0 -0.402675,-7.175989 3.454596,-10.495364 3.857275,-3.31938 8.091418,-2.526827 8.091418,-2.526827 z"
             id="path13" /><path
             style="fill:#a500c1;fill-opacity:1;stroke-width:0.157633;stroke-dasharray:none"
             d="m 31.178184,33.832958 c 0,0 1.713595,3.850244 0.366713,6.840084 -1.346887,2.989839 -3.161115,4.330611 -4.671897,5.546425 -1.510782,1.215814 -3.380698,4.695007 -3.380698,4.695007 0,0 -0.812963,-1.271946 -1.191885,-2.980203 -0.378926,-1.708257 -0.323814,-3.852827 0.01828,-4.356583 0.684212,-1.007513 3.080529,-1.485236 5.587731,-3.627868 2.507202,-2.142635 3.271739,-6.116862 3.271739,-6.116862 z"
             id="path14" /></g></g></g></g></svg>
