<?xml version="1.0" encoding="UTF-8" standalone="no"?>
<!-- Created with Inkscape (http://www.inkscape.org/) -->

<svg
   width="28.208416mm"
   height="36.043484mm"
   viewBox="0 0 28.208416 36.043484"
   version="1.1"
   id="svg1"
   xml:space="preserve"
   xmlns="http://www.w3.org/2000/svg"
   xmlns:svg="http://www.w3.org/2000/svg"><defs
     id="defs1" /><g
     id="layer1"
     transform="translate(-18.54641,-14.871022)"><g
       id="g91"><g
         id="g80"><path
           style="fill:#172033;fill-opacity:1;stroke-width:0.157633;stroke-dasharray:none"
           d="m 35.196796,32.521285 c 0,0 0.444338,-3.343686 2.652494,-5.608121 2.208152,-2.264432 4.026515,-2.162486 6.074958,-3.943099 2.048439,-1.780613 2.818564,-3.470971 2.818564,-3.470971 0,0 0.402673,7.175989 -3.454598,10.495364 -3.857275,3.31938 -8.091418,2.526827 -8.091418,2.526827 z"
           id="path39" /><path
           style="fill:#383854;fill-opacity:1;stroke-width:0.157633;stroke-dasharray:none"
           d="m 34.123051,31.952538 c 0,0 -1.713595,-3.850244 -0.366713,-6.840084 1.346887,-2.989839 3.161115,-4.330611 4.671897,-5.546425 1.510782,-1.215814 3.380698,-4.695007 3.380698,-4.695007 0,0 0.812963,1.271946 1.191885,2.980203 0.378926,1.708257 0.323814,3.852827 -0.01828,4.356583 -0.684212,1.007513 -3.080529,1.485236 -5.587731,3.627868 -2.507202,2.142635 -3.271739,6.116862 -3.271739,6.116862 z"
           id="path40" /><path
           style="fill:#172033;fill-opacity:1;stroke-width:0.157633;stroke-dasharray:none"
           d="m 35.196796,33.264241 c 0,0 0.444338,3.343686 2.652494,5.608121 2.208152,2.264432 4.026515,2.162486 6.074958,3.943099 2.048439,1.780613 2.818564,3.470971 2.818564,3.470971 0,0 0.402673,-7.175989 -3.454598,-10.495364 -3.857275,-3.31938 -8.091418,-2.526827 -8.091418,-2.526827 z"
           id="path43" /><path
           style="fill:#383854;fill-opacity:1;stroke-width:0.157633;stroke-dasharray:none"
           d="m 34.123051,33.832988 c 0,0 -1.713595,3.850244 -0.366713,6.840084 1.346887,2.989839 3.161115,4.330611 4.671897,5.546425 1.510782,1.215814 3.380698,4.695007 3.380698,4.695007 0,0 0.812963,-1.271946 1.191885,-2.980203 0.378926,-1.708257 0.323814,-3.852827 -0.01828,-4.356583 -0.684212,-1.007513 -3.080529,-1.485236 -5.587731,-3.627868 -2.507202,-2.142635 -3.271739,-6.116862 -3.271739,-6.116862 z"
           id="path44" /></g><g
         id="g79"><path
           style="fill:#172033;fill-opacity:1;stroke-width:0.157633;stroke-dasharray:none"
           d="m 30.104439,32.521285 c 0,0 -0.444342,-3.343686 -2.652494,-5.608121 -2.208152,-2.264432 -4.02652,-2.162486 -6.074958,-3.943099 -2.048444,-1.780613 -2.818564,-3.470971 -2.818564,-3.470971 0,0 -0.402675,7.175989 3.454598,10.495364 3.857271,3.31938 8.091418,2.526827 8.091418,2.526827 z"
           id="path41" /><path
           style="fill:#383854;fill-opacity:1;stroke-width:0.157633;stroke-dasharray:none"
           d="m 31.17818,31.952538 c 0,0 1.713595,-3.850244 0.366712,-6.840084 -1.346882,-2.989839 -3.161114,-4.330611 -4.671896,-5.546425 -1.510782,-1.215814 -3.380694,-4.695007 -3.380694,-4.695007 0,0 -0.812963,1.271946 -1.191889,2.980203 -0.378922,1.708257 -0.32381,3.852827 0.01828,4.356583 0.684217,1.007513 3.08053,1.485236 5.587732,3.627868 2.507206,2.142635 3.271743,6.116862 3.271743,6.116862 z"
           id="path42" /><path
           style="fill:#172033;fill-opacity:1;stroke-width:0.157633;stroke-dasharray:none"
           d="m 30.104439,33.264211 c 0,0 -0.444338,3.343686 -2.652494,5.608121 -2.208152,2.264432 -4.026515,2.162486 -6.074958,3.943099 -2.048439,1.780613 -2.818562,3.470971 -2.818562,3.470971 0,0 -0.402675,-7.175989 3.454596,-10.495364 3.857275,-3.31938 8.091418,-2.526827 8.091418,-2.526827 z"
           id="path45" /><path
           style="fill:#383854;fill-opacity:1;stroke-width:0.157633;stroke-dasharray:none"
           d="m 31.178184,33.832958 c 0,0 1.713595,3.850244 0.366713,6.840084 -1.346887,2.989839 -3.161115,4.330611 -4.671897,5.546425 -1.510782,1.215814 -3.380698,4.695007 -3.380698,4.695007 0,0 -0.812963,-1.271946 -1.191885,-2.980203 -0.378926,-1.708257 -0.323814,-3.852827 0.01828,-4.356583 0.684212,-1.007513 3.080529,-1.485236 5.587731,-3.627868 2.507202,-2.142635 3.271739,-6.116862 3.271739,-6.116862 z"
           id="path46" /></g></g></g></svg>
